<svg xml:space="preserve" style="enable-background:new 0 0 1024 1024;" viewBox="0 0 1024 1024" y="0px" x="0px" xmlns:xlink="http://www.w3.org/1999/xlink" xmlns="http://www.w3.org/2000/svg" id="图层_1" version="1.1">
<style type="text/css">
	.st0{fill-rule:evenodd;clip-rule:evenodd;fill:url(#SVGID_1_);}
	.st1{fill-rule:evenodd;clip-rule:evenodd;fill:url(#SVGID_2_);}
	.st2{fill-rule:evenodd;clip-rule:evenodd;fill:url(#SVGID_3_);}
	.st3{fill-rule:evenodd;clip-rule:evenodd;fill:url(#SVGID_4_);}
	.st4{fill-rule:evenodd;clip-rule:evenodd;fill:url(#SVGID_5_);}
	.st5{fill-rule:evenodd;clip-rule:evenodd;fill:url(#Badge_1_);}
	.st6{fill-rule:evenodd;clip-rule:evenodd;fill:url(#SVGID_6_);}
	.st7{fill-rule:evenodd;clip-rule:evenodd;fill:url(#SVGID_7_);}
	.st8{fill-rule:evenodd;clip-rule:evenodd;fill:#FFFFFF;}
	.st9{fill-rule:evenodd;clip-rule:evenodd;fill:url(#SVGID_8_);}
	.st10{fill-rule:evenodd;clip-rule:evenodd;fill:url(#SVGID_9_);}
	.st11{fill-rule:evenodd;clip-rule:evenodd;fill:url(#SVGID_10_);}
	.st12{fill-rule:evenodd;clip-rule:evenodd;fill:url(#SVGID_11_);}
	.st13{fill-rule:evenodd;clip-rule:evenodd;fill:url(#SVGID_12_);}
	.st14{fill:url(#SVGID_13_);}
	.st15{fill-rule:evenodd;clip-rule:evenodd;fill:url(#SVGID_14_);}
	.st16{fill:url(#SVGID_15_);}
	.st17{fill-rule:evenodd;clip-rule:evenodd;fill:url(#SVGID_16_);}
	.st18{fill:url(#SVGID_17_);}
	.st19{fill:url(#SVGID_18_);}
	.st20{fill-rule:evenodd;clip-rule:evenodd;fill:url(#SVGID_19_);}
	.st21{fill:url(#SVGID_20_);}
	.st22{fill-rule:evenodd;clip-rule:evenodd;fill:url(#SVGID_21_);}
	.st23{fill:url(#SVGID_22_);}
	.st24{fill-rule:evenodd;clip-rule:evenodd;fill:url(#SVGID_23_);}
	.st25{fill-rule:evenodd;clip-rule:evenodd;fill:url(#SVGID_24_);}
	.st26{fill-rule:evenodd;clip-rule:evenodd;fill:url(#SVGID_25_);}
	.st27{fill-rule:evenodd;clip-rule:evenodd;fill:url(#SVGID_26_);}
	.st28{fill-rule:evenodd;clip-rule:evenodd;fill:url(#SVGID_27_);}
	.st29{fill-rule:evenodd;clip-rule:evenodd;fill:url(#SVGID_28_);}
	.st30{fill-rule:evenodd;clip-rule:evenodd;fill:url(#SVGID_29_);}
	.st31{fill-rule:evenodd;clip-rule:evenodd;fill:url(#SVGID_30_);}
	.st32{fill-rule:evenodd;clip-rule:evenodd;fill:url(#SVGID_31_);}
	.st33{fill:url(#SVGID_32_);}
	.st34{fill-rule:evenodd;clip-rule:evenodd;fill:url(#SVGID_33_);}
	.st35{fill-rule:evenodd;clip-rule:evenodd;fill:url(#SVGID_34_);}
	.st36{fill:url(#SVGID_35_);}
	.st37{fill-rule:evenodd;clip-rule:evenodd;fill:url(#SVGID_36_);}
	.st38{fill-rule:evenodd;clip-rule:evenodd;fill:url(#SVGID_37_);}
	.st39{fill-rule:evenodd;clip-rule:evenodd;fill:url(#SVGID_38_);}
	.st40{fill:url(#SVGID_39_);}
	.st41{fill:url(#SVGID_40_);}
	.st42{fill-rule:evenodd;clip-rule:evenodd;fill:url(#SVGID_41_);}
	.st43{fill:url(#SVGID_42_);}
	.st44{fill-rule:evenodd;clip-rule:evenodd;fill:url(#SVGID_43_);}
	.st45{fill-rule:evenodd;clip-rule:evenodd;fill:url(#SVGID_44_);}
	.st46{fill-rule:evenodd;clip-rule:evenodd;fill:url(#SVGID_45_);}
	.st47{fill-rule:evenodd;clip-rule:evenodd;fill:url(#SVGID_46_);}
	.st48{fill-rule:evenodd;clip-rule:evenodd;fill:url(#SVGID_47_);}
	.st49{fill-rule:evenodd;clip-rule:evenodd;fill:url(#SVGID_48_);}
	.st50{fill-rule:evenodd;clip-rule:evenodd;fill:url(#SVGID_49_);}
	.st51{fill-rule:evenodd;clip-rule:evenodd;fill:url(#SVGID_50_);}
	.st52{fill-rule:evenodd;clip-rule:evenodd;fill:url(#SVGID_51_);}
	.st53{fill-rule:evenodd;clip-rule:evenodd;fill:url(#SVGID_52_);}
	.st54{fill-rule:evenodd;clip-rule:evenodd;fill:url(#SVGID_53_);}
	.st55{fill-rule:evenodd;clip-rule:evenodd;fill:url(#SVGID_54_);}
	.st56{fill-rule:evenodd;clip-rule:evenodd;fill:url(#SVGID_55_);}
	.st57{fill-rule:evenodd;clip-rule:evenodd;fill:url(#SVGID_56_);}
	.st58{fill-rule:evenodd;clip-rule:evenodd;fill:url(#SVGID_57_);}
	.st59{fill:url(#SVGID_58_);}
	.st60{fill:url(#SVGID_59_);}
	.st61{fill:url(#SVGID_60_);}
	.st62{fill:url(#SVGID_61_);}
	.st63{fill-rule:evenodd;clip-rule:evenodd;fill:url(#SVGID_62_);}
	.st64{fill-rule:evenodd;clip-rule:evenodd;fill:url(#SVGID_63_);}
	.st65{fill-rule:evenodd;clip-rule:evenodd;fill:url(#SVGID_64_);}
	.st66{fill-rule:evenodd;clip-rule:evenodd;fill:url(#SVGID_65_);}
	.st67{fill-rule:evenodd;clip-rule:evenodd;fill:url(#SVGID_66_);}
	.st68{fill-rule:evenodd;clip-rule:evenodd;fill:url(#SVGID_67_);}
	.st69{fill-rule:evenodd;clip-rule:evenodd;fill:url(#SVGID_68_);}
	.st70{fill-rule:evenodd;clip-rule:evenodd;fill:url(#SVGID_69_);}
	.st71{fill-rule:evenodd;clip-rule:evenodd;fill:url(#SVGID_70_);}
	.st72{fill-rule:evenodd;clip-rule:evenodd;fill:url(#SVGID_71_);}
	.st73{fill-rule:evenodd;clip-rule:evenodd;fill:url(#SVGID_72_);}
	.st74{fill:url(#SVGID_73_);}
	.st75{fill:url(#SVGID_74_);}
	.st76{fill:url(#SVGID_75_);}
</style>
<g id="图层_2_1_">
	<g id="Online_Transportation_Car">
		<g id="Cyber_Monday_7">
			<g id="Effect-Back">
				
					<linearGradient gradientTransform="matrix(52.1 90.24 -141.9 81.93 130792.5938 334807.1875)" y2="-330.9662" x2="-3405.9087" y1="-330.9662" x1="-3406.4971" gradientUnits="userSpaceOnUse" id="SVGID_1_">
					<stop style="stop-color:#FFFFFF" offset="0"></stop>
					<stop style="stop-color:#B0DCFF" offset="1"></stop>
				</linearGradient>
				<path d="M377.6,243.3c-7.3-12.5-23.3-16.8-35.9-9.6l-143.1,82.6c-12.6,7.3-16.9,23.3-9.6,35.9
					c7.3,12.6,23.3,16.9,35.9,9.6l0,0L368,279.1C380.6,271.9,384.9,255.8,377.6,243.3z" class="st0"></path>
				
					<linearGradient gradientTransform="matrix(52.1 90.24 -58.49 33.77 158031.0156 319646.25)" y2="-348.2267" x2="-3407.749" y1="-348.2267" x1="-3408.3557" gradientUnits="userSpaceOnUse" id="SVGID_2_">
					<stop style="stop-color:#FFFFFF" offset="0"></stop>
					<stop style="stop-color:#B0DCFF" offset="1"></stop>
				</linearGradient>
				<path d="M864,297.1c-7.3-12.6-23.3-16.9-35.9-9.6l-32.2,18.6c-12.6,7.3-16.9,23.3-9.6,35.9
					c7.3,12.6,23.3,16.9,35.9,9.6l0,0l32.2-18.6C867,325.7,871.3,309.7,864,297.1z" class="st1"></path>
				
					<linearGradient gradientTransform="matrix(52.1 90.24 -65.89 38.04 154812.1875 320683.125)" y2="-347.8943" x2="-3404.98" y1="-347.8943" x1="-3405.5686" gradientUnits="userSpaceOnUse" id="SVGID_3_">
					<stop style="stop-color:#FFFFFF" offset="0"></stop>
					<stop style="stop-color:#B0DCFF" offset="1"></stop>
				</linearGradient>
				<path d="M347.8,103.5c-7.3-12.5-23.3-16.8-35.8-9.6l-42.2,24.4c-12.7,7-17.3,23-10.3,35.7c7,12.7,23,17.3,35.7,10.3
					c0.3-0.2,0.6-0.3,0.8-0.5l42.1-24.3C350.7,132.2,355,116.1,347.8,103.5L347.8,103.5z" class="st2"></path>
				
					<linearGradient gradientTransform="matrix(52.1 90.24 -98.69 56.98 144702.8281 327454.1562)" y2="-337.7414" x2="-3408.1389" y1="-337.7414" x1="-3408.7451" gradientUnits="userSpaceOnUse" id="SVGID_4_">
					<stop style="stop-color:#FFFFFF" offset="0"></stop>
					<stop style="stop-color:#B0DCFF" offset="1"></stop>
				</linearGradient>
				<path d="M507.1,571.1c-7.3-12.6-23.3-16.9-35.9-9.6L385.5,611c-12.6,7.3-16.9,23.3-9.6,35.9
					c7.3,12.6,23.3,16.9,35.9,9.6l85.7-49.4C510.1,599.8,514.4,583.7,507.1,571.1C507.1,571.1,507.1,571.1,507.1,571.1z" class="st3"></path>
				
					<linearGradient gradientTransform="matrix(52.1 90.24 -122.81 70.91 137265.625 331064.25)" y2="-331.8737" x2="-3405.8955" y1="-331.8737" x1="-3406.5022" gradientUnits="userSpaceOnUse" id="SVGID_5_">
					<stop style="stop-color:#FFFFFF" offset="0"></stop>
					<stop style="stop-color:#B0DCFF" offset="1"></stop>
				</linearGradient>
				<path d="M632.8,93.3c-7.3-12.6-23.3-16.9-35.9-9.6l-117.7,68c-12.6,7.3-16.9,23.3-9.6,35.9
					c7.3,12.6,23.3,16.9,35.9,9.6l117.7-68C635.8,121.9,640.1,105.8,632.8,93.3z" class="st4"></path>
			</g>
			<g id="Flash-Sale-badge">
				
					<linearGradient gradientTransform="matrix(0 929.06 -929.06 0 -295308.9375 3180919.75)" y2="-318.4115" x2="-3423.1191" y1="-318.4115" x1="-3423.7075" gradientUnits="userSpaceOnUse" id="Badge_1_">
					<stop style="stop-color:#FFBC56" offset="0"></stop>
					<stop style="stop-color:#FF5133" offset="1"></stop>
				</linearGradient>
				<path d="M507,87.4c4.6-2.7,10.3-2.7,14.9,0L748.2,218c4.6,2.7,7.4,7.6,7.5,12.9v261.2
					c0,5.3-2.8,10.2-7.5,12.9L521.9,635.6c-4.6,2.7-10.3,2.7-14.9,0L280.8,505c-4.6-2.7-7.5-7.6-7.5-12.9V230.9
					c0-5.3,2.8-10.2,7.5-12.9L507,87.4z" class="st5" id="Badge"></path>
				
					<linearGradient gradientTransform="matrix(0 600.58 -600.58 0 -191750.0156 2056294.5)" y2="-320.1313" x2="-3422.978" y1="-320.1313" x1="-3423.5842" gradientUnits="userSpaceOnUse" id="SVGID_6_">
					<stop style="stop-color:#FFBC56" offset="0"></stop>
					<stop style="stop-color:#FF5133" offset="1"></stop>
				</linearGradient>
				<path d="M410.3,143.2l345.4,199.4v149.5c0,5.3-2.8,10.3-7.5,12.9l-143.1,82.6L273.3,396.1V230.9
					c0-5.3,2.8-10.2,7.5-12.9L410.3,143.2z" class="st6"></path>
				
					<linearGradient gradientTransform="matrix(0 656.4 -656.4 0 -209360.9062 2247562)" y2="-319.6589" x2="-3423.0632" y1="-319.6589" x1="-3423.6521" gradientUnits="userSpaceOnUse" id="SVGID_7_">
					<stop style="stop-color:#FFBC56" offset="0"></stop>
					<stop style="stop-color:#FF5133" offset="1"></stop>
				</linearGradient>
				<path d="M273.3,340.7l379.7,219.2l-131.1,75.7c-4.6,2.7-10.3,2.7-14.9,0L280.8,505c-4.6-2.7-7.5-7.6-7.5-12.9V340.7
					z" class="st7"></path>
				<path d="M513.5,602.5h-0.1l-4.6-2.7c-0.6-0.5-1-1.2-1.1-1.9c0-0.5,0.2-1,0.5-1.4c0.5-0.6,0.7-0.5,1.3-0.8h0.8
					l0.7,0.3l3.6,2l3.6-2c0.5-0.2,1-0.3,1.5-0.3l0.7,0.3c0.6,0.4,1,1.2,1.1,1.9c0,0.5-0.2,1-0.5,1.4c-0.2,0.2-0.4,0.3-0.6,0.5
					l-4.6,2.7h-0.1c-0.2,0.1-0.4,0.2-0.6,0.2c-0.3,0-0.5,0-0.8,0C513.9,602.6,513.7,602.6,513.5,602.5L513.5,602.5z M539.6,584.6
					c0.4,0.3,0.8,0.7,1,1.2c0.3,0.7,0.1,1.6-0.4,2.2c-0.2,0.2-0.4,0.4-0.6,0.5l-7.8,4.5c-0.5,0.3-1,0.4-1.5,0.3
					c-1.3-0.2-2.1-1.5-1.8-2.7c0-0.1,0-0.2,0.1-0.2c0.2-0.7,0.5-0.7,1-1.2l7.7-4.5c0.5-0.2,1-0.3,1.5-0.3L539.6,584.6z M490.9,584.3
					l0.7,0.3l7.7,4.6c0.5,0.4,0.7,0.5,1,1.2c0.4,1.2-0.3,2.6-1.6,2.9c-0.1,0-0.1,0-0.2,0.1c-0.5,0.1-1,0-1.5-0.3l-7.8-4.5
					c-0.4-0.3-0.8-0.7-1-1.2c-0.3-0.7-0.1-1.6,0.4-2.2c0.4-0.6,0.7-0.5,1.3-0.8L490.9,584.3z M559,573.4c0.4,0.3,0.8,0.7,1,1.2
					c0.3,0.7,0.1,1.6-0.4,2.2c-0.2,0.2-0.4,0.3-0.6,0.5l-7.7,4.5c-0.5,0.3-1,0.4-1.5,0.3c-1.3-0.2-2.1-1.5-1.8-2.7
					c0-0.1,0-0.2,0.1-0.2c0.2-0.7,0.5-0.7,1-1.2l7.7-4.5c0.5-0.2,1-0.3,1.5-0.3L559,573.4z M471.6,573.2l0.7,0.3l7.7,4.5
					c0.5,0.4,0.7,0.5,1,1.2c0.4,1.2-0.3,2.5-1.5,2.9c-0.1,0-0.2,0.1-0.3,0.1c-0.5,0.1-1,0-1.5-0.3l-7.7-4.5c-0.6-0.4-1-1.2-1.1-1.9
					c0-0.5,0.2-1,0.5-1.4c0.4-0.4,0.8-0.7,1.4-0.8L471.6,573.2z M578.4,562.2c0.4,0.3,0.8,0.7,1,1.2c0.3,0.8,0.1,1.6-0.4,2.2
					c-0.2,0.2-0.4,0.3-0.6,0.5l-7.8,4.5c-0.5,0.3-1,0.4-1.5,0.3c-1.3-0.2-2.1-1.5-1.8-2.7c0-0.1,0-0.2,0.1-0.3
					c0.2-0.7,0.5-0.7,1-1.2l7.7-4.5c0.5-0.2,1-0.3,1.5-0.2L578.4,562.2z M452.2,562l0.7,0.2l7.7,4.5c0.5,0.4,0.7,0.5,1,1.2
					c0.4,1.2-0.3,2.5-1.5,2.9c-0.1,0-0.2,0-0.3,0.1c-0.5,0.1-1,0-1.5-0.3l-7.8-4.5c-0.5-0.4-0.7-0.5-1-1.2c-0.3-1,0.1-2.1,1-2.7
					C451.1,562.1,451.6,562,452.2,562L452.2,562z M597.8,551.1c0.4,0.3,0.8,0.7,1,1.2c0.3,0.8,0.1,1.6-0.4,2.2
					c-0.2,0.2-0.4,0.3-0.6,0.5l-7.7,4.5c-1.1,0.6-2.5,0.2-3.1-0.9c-0.3-0.6-0.4-1.2-0.2-1.8c0.2-0.7,0.5-0.7,1-1.2l7.7-4.5
					c0.5-0.2,1-0.3,1.5-0.3L597.8,551.1z M432.8,550.8l0.7,0.3l7.7,4.5c0.5,0.4,0.7,0.5,1,1.2c0.4,1.2-0.2,2.5-1.4,2.9
					c-0.6,0.2-1.3,0.2-1.8-0.2l-7.7-4.5c-0.5-0.4-0.7-0.5-1-1.2c-0.3-1,0.1-2.1,1-2.7C431.8,550.9,432.3,550.8,432.8,550.8
					L432.8,550.8z M617,540c0.6,0.5,1,1.2,1.1,1.9c0,0.5-0.2,1-0.5,1.4c-0.2,0.2-0.4,0.4-0.6,0.5l-7.8,4.5c-0.5,0.3-1,0.4-1.5,0.3
					c-1.3-0.3-2.1-1.5-1.8-2.8c0-0.1,0-0.1,0.1-0.2c0.2-0.7,0.5-0.7,1-1.2l7.7-4.5c0.5-0.2,1-0.3,1.5-0.3L617,540L617,540z
					 M413.4,539.7l0.7,0.3l7.7,4.5c0.5,0.4,0.7,0.5,1,1.2c0.4,1.2-0.3,2.6-1.6,2.9c-0.1,0-0.1,0-0.2,0.1c-0.5,0.1-1,0-1.5-0.3
					l-7.7-4.5c-0.5-0.4-0.7-0.5-1-1.2c-0.3-1,0.1-2.1,1-2.7C412.4,539.7,412.9,539.7,413.4,539.7L413.4,539.7z M636.4,528.8
					c0.6,0.5,1,1.2,1.1,1.9c0,0.5-0.2,1-0.5,1.4c-0.2,0.2-0.4,0.4-0.6,0.5l-7.7,4.5c-0.5,0.3-1,0.4-1.5,0.3
					c-1.3-0.3-2.1-1.5-1.8-2.7c0-0.1,0-0.1,0.1-0.2c0.2-0.7,0.5-0.7,1-1.2l7.7-4.5c0.5-0.2,1-0.3,1.5-0.3L636.4,528.8L636.4,528.8z
					 M394,528.6l0.7,0.3l7.7,4.5c0.5,0.4,0.7,0.5,1,1.2c0.4,1.2-0.3,2.5-1.6,2.9c-0.1,0-0.1,0-0.2,0.1c-0.5,0.1-1,0-1.5-0.3
					l-7.7-4.5c-0.2-0.1-0.4-0.3-0.6-0.5c-0.7-0.8-0.7-2,0-2.9c0.4-0.5,0.7-0.5,1.3-0.8L394,528.6z M655.8,517.7
					c0.6,0.4,1,1.2,1.1,1.9c0,0.5-0.2,1-0.5,1.4c-0.2,0.2-0.4,0.3-0.6,0.5l-7.8,4.5c-0.5,0.3-1,0.4-1.5,0.3
					c-1.3-0.2-2.1-1.5-1.8-2.7c0-0.1,0-0.2,0.1-0.3c0.2-0.7,0.5-0.7,1-1.2l7.7-4.5c0.5-0.2,1-0.3,1.5-0.3L655.8,517.7z M374.7,517.4
					l0.7,0.3l7.7,4.5c0.5,0.4,0.7,0.5,1,1.2c0.4,1.2-0.3,2.5-1.5,2.9c-0.1,0-0.2,0-0.3,0.1c-0.5,0.1-1,0-1.5-0.3l-7.8-4.5
					c-0.5-0.4-0.7-0.5-1-1.2c-0.3-1,0.1-2.1,1-2.7C373.6,517.4,374.1,517.3,374.7,517.4L374.7,517.4z M675.2,506.5
					c0.6,0.4,1,1.2,1.1,1.9c0,0.5-0.2,1-0.5,1.4c-0.2,0.2-0.4,0.4-0.6,0.5l-7.7,4.5c-1.1,0.6-2.5,0.2-3.1-0.8
					c-0.3-0.6-0.4-1.3-0.2-1.9c0.2-0.7,0.5-0.7,1-1.2l7.7-4.5c0.5-0.2,1-0.3,1.5-0.3L675.2,506.5z M355.3,506.2l0.7,0.3l7.7,4.4
					c0.5,0.4,0.7,0.5,1,1.2c0.4,1.2-0.3,2.5-1.5,2.9c-0.1,0-0.2,0-0.2,0.1c-0.5,0.1-1,0-1.5-0.3l-7.7-4.5c-0.5-0.4-0.7-0.5-1-1.2
					c-0.3-1,0.1-2.1,1-2.7C354.2,506.2,354.7,506.1,355.3,506.2L355.3,506.2z M694.6,495.3c0.2,0.1,0.4,0.3,0.6,0.5
					c0.7,0.8,0.7,2,0,2.9c-0.2,0.2-0.4,0.4-0.6,0.5l-7.8,4.4c-0.5,0.3-1,0.4-1.5,0.3c-1.3-0.2-2.1-1.5-1.8-2.7c0-0.1,0-0.2,0.1-0.3
					c0.2-0.7,0.5-0.7,1-1.2l7.7-4.5c0.5-0.2,1-0.3,1.5-0.3L694.6,495.3L694.6,495.3z M336,495l0.7,0.3l7.7,4.5
					c0.5,0.4,0.7,0.5,1,1.2c0.4,1.2-0.3,2.5-1.6,2.9c-0.1,0-0.1,0-0.2,0.1c-0.5,0.1-1.1,0-1.5-0.3l-7.7-4.5c-0.5-0.4-0.7-0.5-1-1.2
					c-0.3-1,0.1-2.1,1-2.7C334.9,495,335.4,494.9,336,495L336,495z M713.9,484.1c0.4,0.3,0.8,0.7,1,1.2c0.3,0.8,0.1,1.6-0.4,2.2
					c-0.2,0.2-0.4,0.3-0.6,0.5l-7.7,4.5c-0.5,0.3-1,0.4-1.5,0.3c-1.3-0.3-2.1-1.5-1.8-2.7c0-0.1,0-0.1,0.1-0.2
					c0.2-0.7,0.5-0.7,1-1.2l7.8-4.5c0.5-0.2,1-0.3,1.5-0.2L713.9,484.1z M316.6,483.9l0.7,0.2l7.7,4.5c0.5,0.4,0.7,0.5,1,1.2
					c0.4,1.2-0.3,2.5-1.5,2.9c-0.1,0-0.2,0.1-0.3,0.1c-0.5,0.1-1,0-1.5-0.3L315,488c-0.5-0.4-0.7-0.5-1-1.2c-0.4-1,0.1-2.2,1-2.7
					C315.5,483.9,316,483.8,316.6,483.9L316.6,483.9z M722.6,466.7c0.5,0.4,0.7,0.5,1,1.2c0.1,0.3,0.1,0.5,0.1,0.8v8.9
					c-0.1,0.7,0,0.9-0.5,1.4c-0.9,0.9-2.4,1-3.3,0.1c0,0-0.1-0.1-0.1-0.1c-0.3-0.4-0.5-0.9-0.5-1.4v-8.9c0.1-0.5,0.2-1,0.5-1.4
					c0.3-0.4,0.8-0.7,1.3-0.7C721.6,466.4,722.1,466.5,722.6,466.7L722.6,466.7z M308.7,466.7c0.2,0.2,0.4,0.3,0.6,0.5
					c0.3,0.4,0.5,0.9,0.5,1.4v8.9c0,0.5-0.2,1-0.5,1.4c-0.9,0.9-2.4,1-3.3,0.1c0,0-0.1-0.1-0.1-0.1c-0.5-0.5-0.4-0.8-0.5-1.4v-8.9
					c0-0.3,0.1-0.5,0.1-0.8c0.3-0.8,1-1.3,1.8-1.4C307.7,466.5,308.2,466.5,308.7,466.7L308.7,466.7z M722.6,444.4
					c0.5,0.4,0.7,0.5,1,1.2c0.1,0.3,0.1,0.5,0.1,0.8v8.9c0,0.5-0.2,1-0.5,1.4c-0.9,0.9-2.4,1-3.3,0.1c0,0-0.1-0.1-0.1-0.1
					c-0.3-0.4-0.5-0.9-0.5-1.4v-8.9c0-0.5,0.2-1,0.5-1.4c0.3-0.4,0.8-0.7,1.3-0.8C721.6,444.1,722.1,444.2,722.6,444.4L722.6,444.4z
					 M308.7,444.4c0.2,0.1,0.4,0.3,0.6,0.5c0.3,0.4,0.5,0.9,0.5,1.4v8.9c0,0.5-0.2,1-0.5,1.4c-0.9,0.9-2.4,1-3.3,0.1
					c0,0-0.1-0.1-0.1-0.1c-0.3-0.4-0.5-0.9-0.5-1.4v-8.9c0-0.5,0.2-1,0.5-1.4c0.3-0.4,0.8-0.7,1.3-0.8
					C307.7,444.1,308.2,444.1,308.7,444.4L308.7,444.4z M308.7,422c0.2,0.1,0.4,0.3,0.6,0.5c0.3,0.4,0.5,0.9,0.5,1.4v8.9
					c0,0.5-0.2,1-0.5,1.4c-0.9,0.9-2.3,1-3.3,0.1c-0.1,0-0.1-0.1-0.1-0.1c-0.3-0.4-0.5-0.9-0.5-1.4V424c0-0.3,0.1-0.5,0.1-0.8
					c0.3-0.8,1-1.3,1.8-1.4C307.7,421.7,308.2,421.8,308.7,422L308.7,422z M722.6,422c0.5,0.4,0.7,0.5,1,1.2
					c0.1,0.3,0.1,0.5,0.1,0.8v8.9c0,0.5-0.2,1-0.5,1.4c-0.9,0.9-2.4,1-3.3,0.1c0,0-0.1-0.1-0.1-0.1c-0.3-0.4-0.5-0.9-0.5-1.4V424
					c0-0.5,0.2-1,0.5-1.4c0.3-0.4,0.8-0.7,1.3-0.8C721.6,421.7,722.1,421.8,722.6,422L722.6,422z M722.6,399.7
					c0.5,0.4,0.7,0.5,1,1.2c0.1,0.3,0.1,0.5,0.1,0.8v8.9c0,0.5-0.2,1-0.5,1.4c-0.9,0.9-2.4,1-3.3,0.1c0,0-0.1-0.1-0.1-0.1
					c-0.3-0.4-0.5-0.9-0.5-1.4v-8.9c0-0.5,0.2-1,0.5-1.4c0.3-0.4,0.8-0.7,1.3-0.8C721.6,399.4,722.1,399.4,722.6,399.7L722.6,399.7z
					 M308.7,399.7c0.2,0.2,0.4,0.3,0.6,0.5c0.3,0.4,0.5,0.9,0.5,1.4v8.9c0,0.5-0.2,1-0.5,1.4c-0.9,0.9-2.4,1-3.3,0.1
					c0,0-0.1-0.1-0.1-0.1c-0.3-0.4-0.5-0.9-0.5-1.4v-8.9c0-0.3,0.1-0.5,0.1-0.8c0.3-0.8,1-1.3,1.8-1.4
					C307.7,399.4,308.2,399.4,308.7,399.7L308.7,399.7z M722.6,377.3c0.5,0.4,0.7,0.5,1,1.2c0.1,0.3,0.1,0.5,0.1,0.8v8.9
					c0,0.5-0.2,1-0.5,1.4c-0.9,0.9-2.3,1-3.3,0.1c-0.1,0-0.1-0.1-0.1-0.1c-0.3-0.4-0.5-0.9-0.5-1.4v-8.9c0.1-0.5,0.2-1,0.5-1.4
					c0.3-0.4,0.8-0.7,1.3-0.8C721.6,377,722.1,377.1,722.6,377.3L722.6,377.3z M308.7,377.3c0.2,0.1,0.4,0.3,0.6,0.5
					c0.3,0.4,0.5,0.9,0.5,1.4v8.9c0,0.5-0.2,1-0.5,1.4c-0.9,0.9-2.4,1-3.3,0.1c0,0-0.1-0.1-0.1-0.1c-0.3-0.4-0.5-0.9-0.5-1.4v-8.9
					c0-0.3,0.1-0.5,0.1-0.8c0.3-0.8,1-1.3,1.8-1.4C307.7,377,308.2,377.1,308.7,377.3L308.7,377.3z M722.6,354.9
					c0.5,0.4,0.7,0.5,1,1.2c0.1,0.3,0.1,0.5,0.1,0.8v8.9c0,0.5-0.2,1-0.5,1.4c-0.9,0.9-2.4,1-3.3,0.1c0,0-0.1-0.1-0.1-0.1
					c-0.3-0.4-0.5-0.9-0.5-1.4v-8.9c0-0.5,0.2-1,0.5-1.4c0.3-0.4,0.8-0.7,1.3-0.8C721.6,354.6,722.1,354.7,722.6,354.9L722.6,354.9z
					 M308.7,354.9c0.5,0.4,0.7,0.5,1,1.2c0.1,0.3,0.1,0.5,0.1,0.8v8.9c0,0.5-0.2,1-0.5,1.4c-0.9,0.9-2.4,1-3.3,0.1
					c0,0-0.1-0.1-0.1-0.1c-0.3-0.4-0.5-0.9-0.5-1.4v-8.9c0-0.3,0.1-0.5,0.1-0.8c0.3-0.8,1-1.3,1.8-1.4
					C307.7,354.6,308.2,354.7,308.7,354.9L308.7,354.9z M722.6,332.6c0.5,0.4,0.7,0.5,1,1.2c0.1,0.3,0.1,0.5,0.1,0.8v8.9
					c0,0.5-0.2,1-0.5,1.4c-0.9,0.9-2.3,1-3.3,0.1c-0.1,0-0.1-0.1-0.1-0.1c-0.3-0.4-0.5-0.9-0.5-1.4v-8.9c0-0.5,0.2-1,0.5-1.4
					c0.3-0.4,0.8-0.7,1.3-0.8C721.6,332.3,722.1,332.4,722.6,332.6L722.6,332.6z M308.7,332.6c0.5,0.4,0.7,0.5,1,1.2
					c0.1,0.3,0.1,0.5,0.1,0.8v8.9c0,0.5-0.2,1-0.5,1.4c-0.9,0.9-2.4,1-3.3,0.1c0,0-0.1-0.1-0.1-0.1c-0.3-0.4-0.5-0.9-0.5-1.4v-8.9
					c0-0.5,0.2-1,0.5-1.4c0.3-0.4,0.8-0.7,1.3-0.8C307.7,332.3,308.2,332.3,308.7,332.6L308.7,332.6z M722.6,310.2
					c0.5,0.4,0.7,0.5,1,1.2c0.1,0.3,0.1,0.5,0.1,0.8v8.9c-0.1,0.7,0,0.9-0.5,1.4c-0.9,0.9-2.4,1-3.3,0.1c0,0-0.1-0.1-0.1-0.1
					c-0.3-0.4-0.5-0.9-0.5-1.4v-8.9c0-0.5,0.2-1,0.5-1.4c0.3-0.4,0.8-0.7,1.3-0.8C721.6,309.9,722.1,310,722.6,310.2L722.6,310.2z
					 M308.7,310.2c0.2,0.1,0.4,0.3,0.6,0.5c0.3,0.4,0.5,0.9,0.5,1.4v8.9c0,0.5-0.2,1-0.5,1.4c-0.9,0.9-2.4,1-3.3,0.1
					c0,0-0.1-0.1-0.1-0.1c-0.5-0.5-0.4-0.8-0.5-1.4v-8.9c0-0.3,0.1-0.5,0.1-0.8c0.3-0.8,1-1.3,1.8-1.4
					C307.7,309.9,308.2,310,308.7,310.2L308.7,310.2z M722.6,287.9c0.5,0.4,0.7,0.5,1,1.2c0.1,0.3,0.1,0.5,0.1,0.8v8.9
					c0,0.5-0.2,1-0.5,1.4c-0.9,0.9-2.4,1-3.3,0.1c0,0-0.1-0.1-0.1-0.1c-0.3-0.4-0.5-0.9-0.5-1.4v-8.9c0-0.5,0.2-1,0.5-1.4
					c0.3-0.4,0.8-0.7,1.3-0.8C721.6,287.5,722.1,287.6,722.6,287.9L722.6,287.9z M308.7,287.9c0.2,0.1,0.4,0.3,0.6,0.5
					c0.3,0.4,0.5,0.9,0.5,1.4v8.9c0,0.5-0.2,1-0.5,1.4c-0.9,0.9-2.4,1-3.3,0.1c0,0-0.1-0.1-0.1-0.1c-0.3-0.4-0.5-0.9-0.5-1.4v-8.9
					c0-0.3,0.1-0.5,0.1-0.8c0.3-0.8,1-1.3,1.8-1.4C307.7,287.6,308.2,287.6,308.7,287.9L308.7,287.9z M722.6,265.5
					c0.5,0.4,0.7,0.5,1,1.2c0.1,0.3,0.1,0.5,0.1,0.8v8.9c0,0.5-0.2,1-0.5,1.4c-0.9,0.9-2.3,1-3.3,0.1c-0.1,0-0.1-0.1-0.1-0.1
					c-0.3-0.4-0.5-0.9-0.5-1.4v-8.9c0-0.5,0.2-1,0.5-1.4c0.3-0.4,0.8-0.7,1.3-0.8C721.6,265.2,722.1,265.3,722.6,265.5L722.6,265.5z
					 M308.7,265.5c0.2,0.1,0.4,0.3,0.6,0.5c0.3,0.4,0.5,0.9,0.5,1.4v8.9c0,0.5-0.2,1-0.5,1.4c-0.9,0.9-2.4,1-3.3,0.1
					c0,0-0.1-0.1-0.1-0.1c-0.3-0.4-0.5-0.9-0.5-1.4v-8.9c0-0.3,0.1-0.5,0.1-0.8c0.3-0.8,1-1.3,1.8-1.4
					C307.7,265.2,308.2,265.3,308.7,265.5L308.7,265.5z M722.6,243.1c0.5,0.4,0.7,0.5,1,1.2c0.1,0.3,0.1,0.5,0.1,0.8v8.9
					c0,0.5-0.2,1-0.5,1.4c-0.9,0.9-2.4,1-3.3,0.1c0,0-0.1-0.1-0.1-0.1c-0.3-0.4-0.5-0.9-0.5-1.4v-8.9c0-0.5,0.2-1,0.5-1.4
					c0.3-0.4,0.8-0.7,1.3-0.8C721.6,242.8,722.1,242.9,722.6,243.1L722.6,243.1z M308.7,243.1c0.2,0.2,0.4,0.3,0.6,0.5
					c0.3,0.4,0.5,0.9,0.5,1.4v8.9c0,0.5-0.2,1-0.5,1.4c-0.9,0.9-2.4,1-3.3,0.1c0,0-0.1-0.1-0.1-0.1c-0.3-0.4-0.5-0.9-0.5-1.4v-8.9
					c0-0.3,0.1-0.5,0.1-0.8c0.3-0.8,1-1.3,1.8-1.4C307.7,242.8,308.2,242.9,308.7,243.1L308.7,243.1z M705.9,230.4l7.7,4.5l0.6,0.5
					c0.3,0.6,0.5,0.7,0.5,1.4c0,1.1-0.8,2-1.8,2.2c-0.5,0.1-1,0-1.5-0.3l-7.9-4.6c-0.5-0.4-0.7-0.5-1-1.2c-0.3-1,0.1-2.1,1-2.7
					c0.5-0.3,1-0.4,1.5-0.3L705.9,230.4z M325.5,230.4c0.6,0.5,1,1.2,1.1,1.9c0,0.5-0.2,1-0.5,1.4c-0.2,0.2-0.4,0.4-0.6,0.5
					l-7.8,4.5c-0.5,0.3-1,0.4-1.5,0.3c-1.3-0.2-2.1-1.5-1.8-2.7c0-0.1,0-0.2,0.1-0.2c0.2-0.7,0.5-0.7,1-1.2l7.7-4.5
					c0.5-0.2,1-0.3,1.5-0.3L325.5,230.4L325.5,230.4z M686.4,219.2l7.8,4.5l0.6,0.5c0.3,0.4,0.5,0.9,0.5,1.4c0,1.1-0.8,2-1.8,2.2
					c-0.5,0.1-1.1,0-1.5-0.3l-7.7-4.5c-0.5-0.4-0.7-0.5-1-1.2c-0.3-1,0.1-2.1,1-2.7c0.5-0.3,1-0.4,1.5-0.3L686.4,219.2L686.4,219.2z
					 M344.7,219.2c0.6,0.5,1,1.2,1.1,1.9c0,0.5-0.2,1-0.5,1.4c-0.2,0.2-0.4,0.4-0.6,0.5l-7.8,4.5c-0.5,0.3-1,0.4-1.5,0.3
					c-1.3-0.2-2.1-1.5-1.8-2.7c0-0.1,0-0.2,0.1-0.3c0.2-0.7,0.5-0.7,1-1.2l7.7-4.5c0.5-0.2,1-0.3,1.5-0.3l0.7,0.3L344.7,219.2z
					 M667.1,208l7.7,4.5l0.6,0.5c0.3,0.4,0.5,0.9,0.5,1.4c0,1.1-0.8,2-1.8,2.2c-0.5,0.1-1,0-1.5-0.3l-7.7-4.5
					c-0.5-0.4-0.7-0.5-1-1.2c-0.3-1,0.1-2.1,1-2.7c0.5-0.3,1-0.4,1.5-0.3L667.1,208z M364.1,208c0.4,0.3,0.8,0.7,1,1.2
					c0.3,0.8,0.1,1.6-0.4,2.2c-0.2,0.2-0.4,0.3-0.6,0.5l-7.8,4.4c-0.5,0.3-1,0.4-1.5,0.3c-1.3-0.2-2.1-1.5-1.8-2.7
					c0-0.1,0-0.2,0.1-0.3c0.2-0.7,0.5-0.7,1-1.2l7.7-4.5c0.5-0.2,1-0.3,1.5-0.3L364.1,208z M647.8,196.9l7.7,4.5l0.6,0.5
					c0.3,0.4,0.5,0.9,0.5,1.4c0,1.2-1,2.2-2.2,2.2c-0.4,0-0.8-0.1-1.1-0.3l-7.7-4.5c-0.5-0.4-0.7-0.5-1-1.2c-0.3-1,0.1-2.1,1-2.7
					c0.5-0.3,1-0.4,1.5-0.3L647.8,196.9z M383.5,196.9c0.2,0.1,0.4,0.3,0.6,0.5c0.7,0.8,0.7,2,0,2.9c-0.2,0.2-0.4,0.4-0.6,0.5
					l-7.7,4.5c-1.1,0.6-2.5,0.2-3.1-0.8c-0.3-0.6-0.4-1.3-0.2-1.9c0.2-0.7,0.5-0.7,1-1.2l7.7-4.5c0.5-0.2,1-0.3,1.5-0.3L383.5,196.9
					z M628.4,185.7l7.7,4.5l0.6,0.5c0.3,0.6,0.5,0.7,0.5,1.4c0,1.1-0.8,2-1.8,2.2c-0.5,0.1-1,0-1.5-0.3l-7.8-4.4
					c-0.5-0.4-0.7-0.5-1-1.2c-0.3-1,0.1-2.1,1-2.7c0.5-0.3,1-0.4,1.5-0.3L628.4,185.7z M402.9,185.7c0.6,0.5,1,1.2,1.1,1.9
					c0,0.5-0.2,1-0.5,1.4c-0.2,0.2-0.4,0.4-0.6,0.5l-7.8,4.5c-0.5,0.3-1,0.4-1.5,0.3c-1.3-0.2-2.1-1.5-1.8-2.7c0-0.1,0-0.2,0.1-0.3
					c0.2-0.7,0.5-0.7,1-1.2l7.7-4.5c0.5-0.2,1-0.3,1.5-0.3L402.9,185.7L402.9,185.7z M609,174.5l7.8,4.4l0.6,0.5
					c0.3,0.4,0.5,0.9,0.5,1.4c0,1.1-0.8,2-1.8,2.2c-0.5,0.1-1.1,0-1.5-0.3l-7.7-4.5c-0.5-0.4-0.7-0.5-1-1.2
					c-0.4-1.1,0.1-2.4,1.3-2.9c0.4-0.1,0.8-0.2,1.2-0.1L609,174.5z M422.2,174.5c0.2,0.2,0.4,0.3,0.6,0.5c0.7,0.8,0.7,2,0,2.9
					c-0.2,0.2-0.4,0.3-0.6,0.5l-7.7,4.5c-0.5,0.3-1,0.4-1.5,0.3c-1.3-0.2-2.1-1.5-1.8-2.7c0-0.1,0-0.2,0.1-0.3
					c0.2-0.7,0.5-0.7,1-1.2l7.8-4.5c0.5-0.2,1-0.3,1.5-0.2L422.2,174.5L422.2,174.5z M589.6,163.3l7.7,4.5l0.6,0.5
					c0.3,0.4,0.5,0.9,0.5,1.4c0,1.1-0.8,2-1.8,2.2c-0.5,0.1-1,0-1.5-0.2l-7.8-4.5c-0.5-0.4-0.7-0.5-1-1.2c-0.3-1,0.1-2.1,1-2.7
					c0.5-0.3,1-0.4,1.5-0.3L589.6,163.3z M441.5,163.3c0.4,0.3,0.8,0.7,1,1.2c0.3,0.8,0.1,1.6-0.4,2.2c-0.2,0.2-0.4,0.4-0.6,0.5
					l-7.7,4.6c-0.5,0.3-1,0.3-1.5,0.2c-1.3-0.2-2.1-1.4-1.9-2.7c0-0.1,0-0.2,0.1-0.3c0.2-0.7,0.5-0.7,1-1.2l7.7-4.5
					c0.5-0.2,1-0.3,1.5-0.3L441.5,163.3L441.5,163.3z M570.2,152.1l7.8,4.5l0.6,0.5c0.3,0.4,0.5,0.9,0.5,1.4c0,1.1-0.8,2-1.8,2.2
					c-0.5,0.1-1.1,0-1.5-0.3l-7.7-4.5c-0.5-0.4-0.7-0.5-1-1.2c-0.3-1,0.1-2.1,1-2.7c0.5-0.3,1-0.4,1.5-0.3L570.2,152.1z
					 M460.9,152.1c0.6,0.5,1,1.2,1.1,1.9c0,0.5-0.2,1-0.5,1.4c-0.2,0.2-0.4,0.4-0.6,0.5l-7.7,4.5c-0.5,0.3-1,0.4-1.5,0.3
					c-1.3-0.3-2.1-1.5-1.8-2.8c0-0.1,0-0.1,0.1-0.2c0.2-0.7,0.5-0.7,1-1.2l7.8-4.5c0.5-0.2,1-0.3,1.5-0.3L460.9,152.1z M550.9,140.9
					l7.7,4.5l0.6,0.5c0.3,0.4,0.5,0.9,0.5,1.4c0,1.1-0.8,2-1.8,2.2c-0.5,0.1-1,0-1.5-0.3l-7.8-4.5c-0.5-0.4-0.7-0.5-1-1.2
					c-0.4-1.2,0.2-2.5,1.3-2.9c0.4-0.1,0.8-0.2,1.1-0.1L550.9,140.9z M480.3,140.9c0.4,0.3,0.8,0.7,1,1.2c0.3,0.7,0.1,1.6-0.4,2.2
					c-0.2,0.2-0.4,0.4-0.6,0.5l-7.8,4.5c-0.5,0.3-1,0.4-1.5,0.3c-1.3-0.2-2.1-1.5-1.8-2.7c0-0.1,0-0.2,0.1-0.3
					c0.2-0.7,0.5-0.7,1-1.2l7.7-4.5c0.5-0.2,1-0.3,1.5-0.3L480.3,140.9L480.3,140.9z M531.5,129.8l7.8,4.5l0.6,0.5
					c0.3,0.4,0.5,0.9,0.5,1.4c0,1.1-0.8,2-1.8,2.2c-0.5,0.1-1.1,0-1.5-0.3l-7.7-4.5c-0.5-0.4-0.7-0.5-1-1.2c-0.3-1,0.1-2.1,1-2.7
					c0.5-0.3,1-0.4,1.5-0.3L531.5,129.8z M499.7,129.8c0.2,0.1,0.4,0.3,0.6,0.5c0.7,0.8,0.7,2,0,2.9c-0.2,0.2-0.4,0.3-0.6,0.5
					l-7.7,4.5c-0.5,0.3-1,0.4-1.5,0.3c-1.3-0.2-2.1-1.5-1.8-2.7c0-0.1,0-0.2,0.1-0.3c0.2-0.7,0.5-0.7,1-1.2l7.8-4.5
					c0.5-0.2,1-0.3,1.5-0.3L499.7,129.8L499.7,129.8z M513.4,120.6c0.5-0.3,1-0.4,1.5-0.3l0.7,0.3l4.3,2.5l0.6,0.5
					c0.3,0.4,0.5,0.9,0.5,1.4c0,1.1-0.8,2-1.8,2.2c-0.5,0.1-1,0-1.5-0.3l-3.2-1.8l-3.2,1.8c-0.5,0.3-1,0.4-1.5,0.3
					c-1.3-0.2-2.1-1.5-1.8-2.7c0-0.1,0-0.2,0.1-0.2c0.2-0.7,0.5-0.7,1-1.2L513.4,120.6L513.4,120.6z" class="st8"></path>
				<g id="Flash-Sale">
					
						<linearGradient gradientTransform="matrix(0 120.73 -120.73 9.51 -40505.0078 416353.6875)" y2="-339.7658" x2="-3418.9153" y1="-339.7124" x1="-3419.5042" gradientUnits="userSpaceOnUse" id="SVGID_8_">
						<stop style="stop-color:#FFFFFF" offset="0"></stop>
						<stop style="stop-color:#EEF8FF" offset="0.55"></stop>
						<stop style="stop-color:#B0DCFF" offset="1"></stop>
					</linearGradient>
					<path d="M556.6,279.3c5-6.7,14.3-11.2,26-12.1c10.6-0.9,21.2,1.1,30.6,5.9l-8,17.1c-7.5-3.6-18.2-6.6-24.4-6.1
						c-3.7,0.3-6.1,1.8-6.1,4.4c0,10.6,38.3,1.3,38.3,27.3c0,15.3-13.8,23.7-30.2,25c-12.5,1-26-2.3-35.3-8.6l8.2-16.9
						c7.5,5.7,19.7,9.4,27.3,8.9c4.6-0.4,7.5-2.1,7.5-5.4c0-9.5-28.9-3.2-36.5-18.1l-17.8,1.4c-1.3,0.1-2.6-0.3-3.6-1.2
						c-1-0.9-1.5-2.2-1.5-3.5l0,0c0-1.7,1.3-3.2,3.1-3.3l18-1.4v-0.2c0-1.5,0.2-3,0.4-4.5l-7.6,0.6c-2.6,0.2-4.9-1.8-5.1-4.4
						c0-0.1,0-0.2,0-0.3l0,0c0-1.7,1.4-3.2,3.1-3.3l13.4-1.1L556.6,279.3z M642.8,335.4l-21.7,1.8v-72.1l21.7-1.8V292l26-2v-28.7
						l21.7-1.8v72l-12.6,1l0,0l-19.8,1.6c-1.3,0.1-2.6-0.4-3.6-1.2c-1-0.9-1.5-2.2-1.5-3.5l0,0c0-1.7,1.3-3.2,3.1-3.3l12.6-0.9
						v-18.6l-26.1,2.1L642.8,335.4L642.8,335.4z M395.3,299.4l-35.1,2.8v14.4l32.6-2.6v16.4l-32.6,2.6v24.7l-21.7,1.8v-49.2
						l-1.2,0.1c-2.6,0.2-4.9-1.8-5.1-4.4c0-0.1,0-0.2,0-0.3l0,0c0-1.7,1.3-3.2,3.1-3.3l3.2-0.2v-6.4l-8.8,0.7
						c-2.6,0.2-4.9-1.7-5.1-4.3c0-0.1,0-0.3,0-0.4l0,0c0-1.7,1.3-3.2,3.1-3.3l67.8-5.4v16.4L395.3,299.4z M544.9,343.1l-23.2,1.8
						l-4.3-11.2l-29.6,2.3l-4.4,11.9l-22.4,1.8l22.8-54.3l-16.4,1.3c-2.6,0.2-4.9-1.7-5.1-4.3c0-0.1,0-0.3,0-0.4l0,0
						c0-1.7,1.3-3.2,3.1-3.3l22-1.8l4.9-11.6l22.4-1.8l30.2,69.6L544.9,343.1z M424.9,334.7l30.8-2.4v17.8l-33.3,2.6l0,0l-22,1.8
						c-1.3,0.1-2.6-0.4-3.6-1.2c-1-0.9-1.5-2.2-1.5-3.5l0,0c0-1.7,1.3-3.2,3.1-3.3l4.8-0.4v-63.8l21.7-1.8L424.9,334.7L424.9,334.7z
						 M511.6,318.7l-8.8-22.9l-8.9,24.2L511.6,318.7z" class="st9"></path>
					
						<linearGradient gradientTransform="matrix(0 142.61 -142.61 11.24 -47419.668 491952.1562)" y2="-336.103" x2="-3420.1584" y1="-336.0673" x1="-3420.7646" gradientUnits="userSpaceOnUse" id="SVGID_9_">
						<stop style="stop-color:#FFFFFF" offset="0"></stop>
						<stop style="stop-color:#EEF8FF" offset="0.55"></stop>
						<stop style="stop-color:#B0DCFF" offset="1"></stop>
					</linearGradient>
					<path d="M359.9,389.1c5.4-9.5,17.1-15.9,32.6-17.1c13.2-1.1,26.8,1.8,36.2,7l-9.5,20.2
						c-8.9-4.3-21.5-7.8-28.8-7.1c-4.3,0.3-7.1,2-7.1,5.2c0,12.5,45.2,1.5,45.2,32.2c0,18.1-16.3,28-35.7,29.5
						c-12.7,1-25.4-1.5-36.7-7.2l-6.7,0.5c-2.6,0.2-4.9-1.7-5.1-4.3c0-0.1,0-0.3,0-0.4l0,0c0-1.7,1.3-3.2,3.1-3.3l6.3-0.5l7.1-14.8
						c8.9,6.7,23.4,11.1,32.3,10.4c5.4-0.4,8.9-2.5,8.9-6.4c0-11.1-33.4-4-42.8-20.8l-5.2,0.4c-1.3,0.1-2.6-0.4-3.6-1.2
						c-1-0.9-1.5-2.2-1.5-3.5l0,0c0-1.7,1.3-3.2,3.1-3.3l4.9-0.4c0-0.7-0.1-1.5-0.1-2.3c0-1.4,0.1-2.7,0.3-4.1l-10.7,0.8
						c-2.6,0.2-4.9-1.7-5.1-4.3c0-0.1,0-0.3,0-0.4l0,0c0-1.7,1.3-3.2,3.1-3.3L359.9,389.1L359.9,389.1z M528.6,447.4l-27.5,2.2
						l-5.1-13.2l-35,2.8l-5.2,14l-26.4,2.1l23.5-55.9l-1.5,0.1c-1.3,0.1-2.6-0.4-3.6-1.2c-1-0.9-1.5-2.2-1.5-3.5l0,0
						c0-1.7,1.3-3.2,3.1-3.3l7.1-0.6l2.8-6.6l-15.4,1.2c-1.3,0.1-2.6-0.3-3.6-1.2c-1-0.9-1.5-2.2-1.5-3.5l0,0c0-1.7,1.3-3.2,3.1-3.3
						l21-1.7l3.6-8.4l26.4-2.1L528.6,447.4L528.6,447.4z M560.6,423.8l36.3-2.9v21.1l-62,4.9v-35.5l-4.3,0.3
						c-2.6,0.2-4.9-1.7-5.1-4.3c0-0.1,0-0.3,0-0.4l0,0c0-1.7,1.3-3.2,3.1-3.3l6.4-0.5v-6.4l-11.9,0.9c-2.6,0.2-4.9-1.7-5.1-4.3
						c0-0.1,0-0.3,0-0.4l0,0c0-1.7,1.3-3.2,3.1-3.3l14-1.1v-26.6l25.7-2V423.8z M676.5,370.1l-45.1,3.6v13.4l40.9-3.2v19.4
						l-40.9,3.2v13.5l46.4-3.7v19.4l-72,5.7v-60.5l-4.4,0.4c-1.3,0.1-2.6-0.4-3.6-1.2c-1-0.9-1.6-2.2-1.5-3.6l0,0
						c0-1.7,1.3-3.2,3.1-3.3l6.4-0.5v-6.3l-12,0.9c-2.6,0.2-4.9-1.7-5.1-4.3c0-0.1,0-0.3,0-0.4l0,0c0-1.7,1.3-3.2,3.1-3.3l14-1.1
						v-1.8l70.8-5.6L676.5,370.1L676.5,370.1z M489.2,418.5l-10.4-27l-10.6,28.5L489.2,418.5L489.2,418.5z" class="st10"></path>
				</g>
			</g>
			<g id="Effect-Front">
				
					<linearGradient gradientTransform="matrix(75 129.91 -127.88 73.83 214396 468391.9688)" y2="-331.2578" x2="-3413.1904" y1="-331.2578" x1="-3413.7971" gradientUnits="userSpaceOnUse" id="SVGID_10_">
					<stop style="stop-color:#FFFFFF" offset="0"></stop>
					<stop style="stop-color:#B0DCFF" offset="1"></stop>
				</linearGradient>
				<path d="M836,448.9c-10.4-18.1-33.6-24.3-51.6-13.8l-104.5,60.3c-18.2,10.3-24.6,33.3-14.3,51.5
					c10.3,18.2,33.3,24.6,51.5,14.3c0.2-0.1,0.4-0.2,0.6-0.4l104.5-60.3C840.3,490.1,846.5,467,836,448.9L836,448.9z" class="st11"></path>
				
					<linearGradient gradientTransform="matrix(73.1 126.62 -93.13 53.77 218045.3594 450670.5625)" y2="-339.429" x2="-3411.469" y1="-339.429" x1="-3412.0579" gradientUnits="userSpaceOnUse" id="SVGID_11_">
					<stop style="stop-color:#FFFFFF" offset="0"></stop>
					<stop style="stop-color:#B0DCFF" offset="1"></stop>
				</linearGradient>
				<path d="M319.6,388.4c-10.2-17.6-32.7-23.6-50.3-13.5l-60,34.6c-17.6,10.2-23.7,32.7-13.5,50.3
					c10.2,17.6,32.7,23.7,50.3,13.5l60-34.6C323.8,428.6,329.8,406,319.6,388.4z" class="st12"></path>
			</g>
			<g id="Percent-Icon">
				
					<linearGradient gradientTransform="matrix(-79.41 205.07 138.43 53.6 -231067.7969 719528.1875)" y2="-295.5569" x2="-3428.104" y1="-295.5569" x1="-3428.6929" gradientUnits="userSpaceOnUse" id="SVGID_12_">
					<stop style="stop-color:#2B5ACC" offset="0"></stop>
					<stop style="stop-color:#152873" offset="1"></stop>
				</linearGradient>
				<path d="M292.6,561.2c26.5,10.6,39.4,40.7,28.8,67.3c-10.6,26.5-40.7,39.4-67.3,28.8s-39.4-40.7-28.8-67.3
					c0,0,0,0,0-0.1C236,563.5,266.1,550.6,292.6,561.2z" class="st13"></path>
				
					<linearGradient gradientTransform="matrix(-40.82 101.74 -39.25 -15.75 -154980.0312 343877.5312)" y2="-384.6375" x2="-3433.0447" y1="-384.6375" x1="-3433.6335" gradientUnits="userSpaceOnUse" id="SVGID_13_">
					<stop style="stop-color:#FFFFFF" offset="0"></stop>
					<stop style="stop-color:#B0DCFF" offset="1"></stop>
				</linearGradient>
				<path d="M256,627.6c-1,0.9-2.2,1.5-3.5,2c-0.9,0.3-1.9,0.3-2.9,0c-1-0.4-1.9-1.2-2.3-2.2c-0.4-1-0.4-2.2,0-3.2
					c0.2-0.6,0.6-1.1,1-1.6c0.4-0.5,0.9-1,1.4-1.4l39-31.1c1.1-0.9,2.3-1.5,3.6-2c0.9-0.3,1.9-0.2,2.8,0.2c1.1,0.4,1.9,1.2,2.4,2.2
					c0.4,1,0.4,2.1,0,3.1c-0.2,0.5-0.5,1-0.9,1.5c-0.5,0.6-1.1,1.1-1.7,1.5L256,627.6z M279.6,628.1c-0.4,1-0.4,2.2,0,3.2
					c0.3,1,1.1,1.8,2,2.2c1,0.4,2,0.3,2.9-0.2c1-0.5,1.8-1.3,2.1-2.3c0.4-1,0.4-2.2,0-3.2c-0.7-1.9-2.7-2.8-4.5-2.2
					c-0.2,0.1-0.3,0.1-0.4,0.2C280.8,626.2,280,627.1,279.6,628.1z M272.6,625.3c1.1-2.9,3.4-5.3,6.2-6.6c5.6-2.5,12.2,0,14.8,5.6
					c0.1,0.1,0.1,0.3,0.2,0.5c2.4,6-0.4,12.8-6.2,15.5c-2.8,1.3-5.9,1.4-8.8,0.2c-2.9-1.1-5.1-3.3-6.2-6.2
					C271.3,631.4,271.3,628.2,272.6,625.3L272.6,625.3z M260.1,587.2c-0.4,1-0.5,2.2-0.1,3.2c0.7,1.9,2.7,2.8,4.6,2.1
					c0.1-0.1,0.3-0.1,0.4-0.2c2-1,3-3.4,2.2-5.5c-0.3-1-1.1-1.8-2.1-2.1c-1-0.4-2-0.3-2.9,0.1C261.3,585.4,260.5,586.2,260.1,587.2
					L260.1,587.2z M253,584.4c1.1-2.9,3.3-5.3,6.2-6.6c5.6-2.6,12.2-0.1,14.8,5.5c0.1,0.2,0.1,0.3,0.2,0.5c2.4,6-0.4,12.8-6.2,15.5
					c-5.6,2.5-12.3,0-14.8-5.6c-0.1-0.1-0.1-0.3-0.2-0.4C251.7,590.5,251.7,587.3,253,584.4L253,584.4z" class="st14"></path>
				
					<linearGradient gradientTransform="matrix(-46.36 192.51 129.95 31.29 -120423.4297 668732.4375)" y2="-292.5161" x2="-3425.0078" y1="-292.5161" x1="-3425.5962" gradientUnits="userSpaceOnUse" id="SVGID_14_">
					<stop style="stop-color:#2B5ACC" offset="0"></stop>
					<stop style="stop-color:#152873" offset="1"></stop>
				</linearGradient>
				<path d="M377.6,108.5c24.9,6.3,40,31.7,33.7,56.6c-6.3,24.9-31.7,40-56.6,33.7c-24.9-6.3-40-31.7-33.7-56.6
					C327.4,117.3,352.7,102.2,377.6,108.5z" class="st15"></path>
				
					<linearGradient gradientTransform="matrix(-24.27 95.68 -36.91 -9.36 -97423.3906 324373.1562)" y2="-395.8007" x2="-3426.9587" y1="-395.8007" x1="-3427.5476" gradientUnits="userSpaceOnUse" id="SVGID_15_">
					<stop style="stop-color:#FFFFFF" offset="0"></stop>
					<stop style="stop-color:#B0DCFF" offset="1"></stop>
				</linearGradient>
				<path d="M353,172.1c-0.8,0.9-1.8,1.6-2.9,2.2c-0.8,0.4-1.7,0.5-2.6,0.3c-1-0.2-1.8-0.9-2.3-1.8
					c-0.5-0.9-0.7-1.9-0.4-2.9c0.1-0.6,0.4-1.1,0.7-1.6c0.3-0.5,0.7-1,1.1-1.4l31.1-32.4c0.8-0.8,1.8-1.5,2.8-2
					c1.8-0.7,3.8-0.1,4.9,1.5c0.5,0.8,0.7,1.8,0.4,2.8c-0.1,0.5-0.4,1-0.6,1.4c-0.4,0.6-0.8,1.1-1.3,1.6L353,172.1z M374.2,169.7
					c-0.3,1-0.1,2,0.3,2.8c0.4,0.9,1.2,1.5,2.1,1.8c0.9,0.2,1.9,0,2.6-0.5c0.8-0.6,1.4-1.4,1.6-2.4c0.3-1,0.2-2-0.3-2.9
					c-0.4-0.8-1.2-1.5-2.1-1.7c-0.9-0.2-1.9-0.1-2.6,0.5C375,168,374.4,168.9,374.2,169.7L374.2,169.7z M367.5,168.1
					c0.6-2.8,2.3-5.1,4.8-6.6c4.7-2.9,10.9-1.5,13.9,3.2c0.1,0.1,0.1,0.2,0.2,0.3c1.4,2.4,1.8,5.4,1,8.1c-0.6,2.7-2.3,5.1-4.7,6.5
					c-4.7,2.9-11,1.5-13.9-3.3c-0.1-0.1-0.1-0.2-0.2-0.3C367.2,173.6,366.8,170.7,367.5,168.1L367.5,168.1z M351.8,135.6
					c-0.3,1-0.2,2,0.3,2.9c0.4,0.8,1.2,1.5,2.1,1.7c0.9,0.2,1.9,0,2.6-0.5c0.8-0.5,1.4-1.4,1.6-2.4c0.3-0.9,0.2-2-0.3-2.8
					c-0.8-1.6-2.7-2.2-4.3-1.4c-0.1,0.1-0.3,0.1-0.4,0.2C352.6,133.8,352,134.6,351.8,135.6z M345.2,133.9c0.6-2.8,2.3-5.1,4.8-6.6
					c4.7-2.9,10.9-1.5,13.9,3.2c0.1,0.1,0.1,0.2,0.2,0.3c2.8,5.1,1.2,11.5-3.7,14.6c-4.7,2.9-11,1.5-13.9-3.3
					c-0.1-0.1-0.1-0.2-0.2-0.3C344.8,139.5,344.4,136.6,345.2,133.9L345.2,133.9z" class="st16"></path>
				
					<linearGradient gradientTransform="matrix(32.97 281.45 189.98 -22.26 170918.7969 956849.25)" y2="-301.3498" x2="-3421.6147" y1="-301.3498" x1="-3422.2214" gradientUnits="userSpaceOnUse" id="SVGID_16_">
					<stop style="stop-color:#2B5ACC" offset="0"></stop>
					<stop style="stop-color:#152873" offset="1"></stop>
				</linearGradient>
				<path d="M840,386.1c36.6-3.8,69.4,22.7,73.2,59.3s-22.7,69.4-59.3,73.2c-36.6,3.8-69.4-22.7-73.2-59.3
					c0,0,0-0.1,0-0.1C777,422.7,803.5,390,840,386.1z" class="st17"></path>
				
					<linearGradient gradientTransform="matrix(14.73 140.49 -54.2 5.68 31474.2969 483052.375)" y2="-364.481" x2="-3419.906" y1="-364.481" x1="-3420.4949" gradientUnits="userSpaceOnUse" id="SVGID_17_">
					<stop style="stop-color:#FFFFFF" offset="0"></stop>
					<stop style="stop-color:#B0DCFF" offset="1"></stop>
				</linearGradient>
				<path d="M838.3,483.7c-0.7,1.6-1.6,3.1-2.8,4.3c-0.9,0.9-2,1.5-3.3,1.7c-2.9,0.3-5.6-1.8-5.9-4.8c0,0,0,0,0,0
					c-0.1-0.8-0.1-1.6,0.1-2.4c0.2-0.9,0.5-1.7,0.8-2.5l25.7-58.9c0.7-1.6,1.6-3.1,2.8-4.3c0.9-0.9,2.1-1.4,3.3-1.5
					c1.4-0.2,2.9,0.2,4,1.1c1.1,0.8,1.9,2.2,1.9,3.6c0.1,0.8,0,1.5-0.2,2.3c-0.2,0.9-0.5,1.9-1,2.7L838.3,483.7L838.3,483.7z
					 M865.5,470.1c0.1,1.4,0.8,2.6,1.8,3.6c1,0.9,2.3,1.4,3.6,1.2c1.3-0.1,2.5-0.9,3.2-2c1.7-2.4,1.3-5.7-0.8-7.7
					c-1.8-1.7-4.8-1.6-6.5,0.2c-0.1,0.2-0.3,0.3-0.4,0.5c-0.8,1.2-1.2,2.6-1,4L865.5,470.1z M855.8,471.1c-0.5-4,0.6-8.1,3.1-11.2
					c4.9-6.3,13.9-7.4,20.2-2.5c0.2,0.1,0.3,0.3,0.5,0.4c6.3,5.4,7.3,14.8,2.2,21.4c-4.9,6.3-13.9,7.5-20.2,2.6
					c-0.2-0.1-0.3-0.2-0.4-0.4C858.1,478.8,856.1,475.1,855.8,471.1L855.8,471.1z M818.6,435.3c0.1,1.4,0.7,2.7,1.8,3.7
					c1.8,1.7,4.6,1.7,6.3-0.1c0.2-0.2,0.4-0.4,0.5-0.7c1.7-2.4,1.4-5.7-0.8-7.7c-1-0.9-2.3-1.3-3.6-1.2c-1.3,0.1-2.5,0.8-3.3,1.9
					C818.8,432.5,818.5,433.9,818.6,435.3L818.6,435.3z M808.9,436.4c-0.5-4,0.6-8.1,3.1-11.2c2.4-3.1,6-5.1,9.9-5.5
					c3.9-0.4,7.8,0.8,10.7,3.4c6.3,5.4,7.3,14.8,2.2,21.4c-4.9,6.3-14,7.4-20.3,2.5c-0.1-0.1-0.3-0.2-0.4-0.3
					C811.1,444.1,809.2,440.3,808.9,436.4L808.9,436.4z" class="st18"></path>
			</g>
			<g id="Flash-Icon">
				
					<linearGradient gradientTransform="matrix(0 -190.89 88.47 0 24882.7344 -653535.5625)" y2="-279.3652" x2="-3424.9587" y1="-279.3652" x1="-3425.5476" gradientUnits="userSpaceOnUse" id="SVGID_18_">
					<stop style="stop-color:#FF5133" offset="0"></stop>
					<stop style="stop-color:#FFBC56" offset="1"></stop>
				</linearGradient>
				<circle r="56.9" cy="321.5" cx="167.3" class="st19"></circle>
				
					<linearGradient gradientTransform="matrix(0 153.32 -44.04 0 -16903.9707 524947)" y2="-387.6309" x2="-3421.5413" y1="-387.6309" x1="-3422.1479" gradientUnits="userSpaceOnUse" id="SVGID_19_">
					<stop style="stop-color:#FFFFFF" offset="0"></stop>
					<stop style="stop-color:#B0DCFF" offset="1"></stop>
				</linearGradient>
				<path d="M163.7,329.8h-24.2c-0.8,0-1.5-0.6-1.5-1.5c0-0.4,0.1-0.7,0.4-1l37.6-43.9c0.5-0.6,1.5-0.7,2.1-0.1
					c0.4,0.4,0.6,0.9,0.5,1.4c-2.6,10-7.5,28.5-7.5,28.5h24.2c0.6,0,1.1,0.3,1.3,0.8c0.2,0.5,0.2,1.1-0.2,1.6l-37.5,43.9
					c-0.4,0.5-1.2,0.6-1.8,0.3c-0.6-0.3-0.9-1-0.7-1.7C158.8,348.4,163.7,329.8,163.7,329.8z" class="st20"></path>
				
					<linearGradient gradientTransform="matrix(3.014324e-03 -175.3596 81.2663 7.805977e-04 23520.7969 -599787.1875)" y2="-280.6241" x2="-3423.856" y1="-280.6241" x1="-3424.4448" gradientUnits="userSpaceOnUse" id="SVGID_20_">
					<stop style="stop-color:#FF5133" offset="0"></stop>
					<stop style="stop-color:#FFBC56" offset="1"></stop>
				</linearGradient>
				<circle r="52.3" cy="657.8" cx="705.2" class="st21"></circle>
				
					<linearGradient gradientTransform="matrix(0 140.84 -40.46 0 -14866.2158 482791.0625)" y2="-384.8595" x2="-3422.9497" y1="-384.8595" x1="-3423.5386" gradientUnits="userSpaceOnUse" id="SVGID_21_">
					<stop style="stop-color:#FFFFFF" offset="0"></stop>
					<stop style="stop-color:#B0DCFF" offset="1"></stop>
				</linearGradient>
				<path d="M701.9,665.4h-22.2c-0.5,0-1-0.3-1.2-0.8c-0.2-0.5-0.2-1,0.2-1.4l34.5-40.4c0.5-0.6,1.3-0.6,1.9-0.2
					c0.4,0.3,0.6,0.9,0.4,1.4l-6.9,26.2h22.2c0.5,0,1,0.3,1.2,0.8c0.2,0.5,0.2,1-0.2,1.4l-34.4,40.4c-0.5,0.6-1.3,0.6-1.9,0.2
					c-0.4-0.3-0.6-0.9-0.4-1.4C697.3,682.4,701.9,665.4,701.9,665.4z" class="st22"></path>
				
					<linearGradient gradientTransform="matrix(-1.006566e-02 -158.2439 73.3418 -2.717051e-03 21008.8848 -542140.5625)" y2="-277.1155" x2="-3426.3171" y1="-277.1155" x1="-3426.9238" gradientUnits="userSpaceOnUse" id="SVGID_22_">
					<stop style="stop-color:#FF5133" offset="0"></stop>
					<stop style="stop-color:#FFBC56" offset="1"></stop>
				</linearGradient>
				<circle r="47.2" cy="90.5" cx="719.2" class="st23"></circle>
				
					<linearGradient gradientTransform="matrix(0 127.09 -36.51 0 -13598.5361 434772.9375)" y2="-392.1601" x2="-3419.8057" y1="-392.1601" x1="-3420.3943" gradientUnits="userSpaceOnUse" id="SVGID_23_">
					<stop style="stop-color:#FFFFFF" offset="0"></stop>
					<stop style="stop-color:#B0DCFF" offset="1"></stop>
				</linearGradient>
				<path d="M716.2,97.3h-20c-0.5,0-0.9-0.3-1.1-0.7c-0.2-0.4-0.1-0.9,0.2-1.3l31.1-36.4c0.4-0.4,1-0.6,1.5-0.3
					c0.5,0.3,0.7,0.8,0.6,1.4c-2.2,8.3-6.2,23.7-6.2,23.7h20c0.5,0,0.9,0.3,1.1,0.7c0.2,0.4,0.1,0.9-0.2,1.3l-31.1,36.4
					c-0.4,0.4-1,0.6-1.5,0.3c-0.5-0.3-0.7-0.8-0.6-1.4C712.1,112.7,716.2,97.3,716.2,97.3z" class="st24"></path>
			</g>
			<g id="Gadgets">
				<g id="TV">
					
						<linearGradient gradientTransform="matrix(2.431475e-14 397.09 420.28 -2.573473e-14 129964.6797 1360364.25)" y2="-308.1527" x2="-3423.5198" y1="-308.1527" x1="-3424.126" gradientUnits="userSpaceOnUse" id="SVGID_24_">
						<stop style="stop-color:#2B5ACC" offset="0"></stop>
						<stop style="stop-color:#152873" offset="1"></stop>
					</linearGradient>
					<path d="M277,935c-5-1.5-8.6-6.1-8.7-11.3c-0.2-71.1-0.2-142.2,0-213.3c0.2-6.4,5.4-11.6,11.8-11.8
						c107-0.3,241.1-0.3,348.2,0c6.4,0.2,11.6,5.3,11.8,11.8c0.2,71.1,0.2,142.2,0,213.3c-0.2,6.4-5.4,11.6-11.8,11.8
						c-107,0.3-241.1,0.3-348.2,0C279.1,935.5,278,935.3,277,935z" class="st25"></path>
					
						<linearGradient gradientTransform="matrix(1.036664e-14 169.3 198.9 -1.217911e-14 60182.9062 580414.75)" y2="-300.295" x2="-3423.3665" y1="-300.295" x1="-3423.9731" gradientUnits="userSpaceOnUse" id="SVGID_25_">
						<stop style="stop-color:#E1F2FF" offset="0"></stop>
						<stop style="stop-color:#95D2FF" offset="1"></stop>
					</linearGradient>
					<path d="M621.6,909.8c0.8,0,1.5-0.7,1.5-1.5V717.2c0-0.8-0.7-1.5-1.5-1.5c0,0,0,0,0,0H286.9
						c-0.8,0-1.5,0.7-1.5,1.5v191.1c0,0.8,0.7,1.5,1.5,1.5H621.6z" class="st26"></path>
					
						<linearGradient gradientTransform="matrix(-206.55 365.15 -365.15 -206.55 -824796.3125 1185957.375)" y2="-321.3034" x2="-3426.9827" y1="-321.3034" x1="-3427.571" gradientUnits="userSpaceOnUse" id="SVGID_26_">
						<stop style="stop-color:#E1F2FF" offset="0"></stop>
						<stop style="stop-color:#95D2FF" offset="1"></stop>
					</linearGradient>
					<path d="M499.1,715.7l124,71.6v121c0,0.8-0.7,1.5-1.5,1.5H409.3l-123.9-71.6v-121c0-0.8,0.7-1.5,1.5-1.5H499.1z" class="st27"></path>
					
						<linearGradient gradientTransform="matrix(-105.6 132.82 -132.82 -105.6 -406097.4688 422391.625)" y2="-329.1027" x2="-3434.9458" y1="-329.1027" x1="-3435.5525" gradientUnits="userSpaceOnUse" id="SVGID_27_">
						<stop style="stop-color:#E1F2FF" offset="0"></stop>
						<stop style="stop-color:#95D2FF" offset="1"></stop>
					</linearGradient>
					<path d="M285.4,774.6l234.1,135.1H286.9c-0.8,0-1.5-0.7-1.5-1.5L285.4,774.6z" class="st28"></path>
					
						<linearGradient gradientTransform="matrix(3.535556e-15 57.74 61.82 -3.785383e-15 16964.0059 198760.4688)" y2="-267.0617" x2="-3425.7197" y1="-267.0617" x1="-3426.3086" gradientUnits="userSpaceOnUse" id="SVGID_28_">
						<stop style="stop-color:#2B5ACC" offset="0"></stop>
						<stop style="stop-color:#152873" offset="1"></stop>
					</linearGradient>
					<path d="M481.6,970.2v-34.5h-54.7v34.5H481.6z" class="st29"></path>
					
						<linearGradient gradientTransform="matrix(2.144357e-15 35.02 172.6 -1.056870e-14 51888.4219 120997.0078)" y2="-297.9964" x2="-3427.6731" y1="-297.9964" x1="-3428.2617" gradientUnits="userSpaceOnUse" id="SVGID_29_">
						<stop style="stop-color:#2B5ACC" offset="0"></stop>
						<stop style="stop-color:#152873" offset="1"></stop>
					</linearGradient>
					<path d="M530.6,980.7v-20.9H377.8v20.9H530.6z" class="st30"></path>
				</g>
				<g id="Laptop">
					
						<linearGradient gradientTransform="matrix(2.174360e-15 35.51 385.7 -2.361731e-14 119520.8359 122671.7266)" y2="-307.9965" x2="-3427.6663" y1="-307.9965" x1="-3428.2727" gradientUnits="userSpaceOnUse" id="SVGID_30_">
						<stop style="stop-color:#E1F2FF" offset="0"></stop>
						<stop style="stop-color:#95D2FF" offset="1"></stop>
					</linearGradient>
					<path d="M897.3,964c0-2.5-2-4.5-4.5-4.5c0,0,0,0,0,0H560.3c-2.5,0-4.5,2-4.5,4.5c0,0,0,0,0,0v12.3
						c0,2.5,2,4.5,4.5,4.5h332.5c2.5,0,4.5-2,4.5-4.4c0,0,0,0,0,0L897.3,964z" class="st31"></path>
					
						<linearGradient gradientTransform="matrix(1.754429e-14 286.52 303.49 -1.858340e-14 93601.6328 981907.25)" y2="-306.0234" x2="-3423.6853" y1="-306.0234" x1="-3424.2742" gradientUnits="userSpaceOnUse" id="SVGID_31_">
						<stop style="stop-color:#2B5ACC" offset="0"></stop>
						<stop style="stop-color:#152873" offset="1"></stop>
					</linearGradient>
					<path d="M860.9,797.8c0-5.3-4.3-9.5-9.5-9.5H601.8c-5.3,0-9.5,4.2-9.5,9.5c0,0,0,0,0,0v161.7h268.7V797.8z" class="st32"></path>
					
						<linearGradient gradientTransform="matrix(7.658941e-15 125.08 138.13 -8.458024e-15 41470.4062 429134.4062)" y2="-294.9672" x2="-3423.8467" y1="-294.9672" x1="-3424.4355" gradientUnits="userSpaceOnUse" id="SVGID_32_">
						<stop style="stop-color:#E1F2FF" offset="0"></stop>
						<stop style="stop-color:#95D2FF" offset="1"></stop>
					</linearGradient>
					<rect height="143.4" width="234.5" class="st33" y="805.3" x="609.3"></rect>
					
						<linearGradient gradientTransform="matrix(-143.44 269.77 -253.58 -152.6 -573074.0625 876505.0625)" y2="-323.2917" x2="-3428.3889" y1="-323.3275" x1="-3428.9956" gradientUnits="userSpaceOnUse" id="SVGID_33_">
						<stop style="stop-color:#E1F2FF" offset="0"></stop>
						<stop style="stop-color:#95D2FF" offset="1"></stop>
					</linearGradient>
					<path d="M633.4,948.7l-24-13.9V805.3h128.9l105.6,61v82.4H633.4z" class="st34"></path>
					
						<linearGradient gradientTransform="matrix(-76.58 96.32 -96.32 -76.58 -294736.375 306661.8125)" y2="-332.8885" x2="-3438.4221" y1="-332.8885" x1="-3439.0105" gradientUnits="userSpaceOnUse" id="SVGID_34_">
						<stop style="stop-color:#E1F2FF" offset="0"></stop>
						<stop style="stop-color:#95D2FF" offset="1"></stop>
					</linearGradient>
					<path d="M609.3,850.7l169.7,98H609.3V850.7z" class="st35"></path>
				</g>
				<g id="CCTV">
					
						<linearGradient gradientTransform="matrix(1.511827e-15 24.69 31.24 -1.912898e-15 7980.4766 85614.9297)" y2="-228.4453" x2="-3428.9788" y1="-228.4453" x1="-3429.5676" gradientUnits="userSpaceOnUse" id="SVGID_35_">
						<stop style="stop-color:#2B5ACC" offset="0"></stop>
						<stop style="stop-color:#152873" offset="1"></stop>
					</linearGradient>
					<rect height="14.8" width="27.7" class="st36" y="951.2" x="830"></rect>
					
						<linearGradient gradientTransform="matrix(0 -231.36 61.47 0 17509.1133 -791126.25)" y2="-271.1112" x2="-3423.0732" y1="-271.1112" x1="-3423.6799" gradientUnits="userSpaceOnUse" id="SVGID_36_">
						<stop style="stop-color:#FF5133" offset="0"></stop>
						<stop style="stop-color:#FFBC56" offset="1"></stop>
					</linearGradient>
					<path d="M883.4,846.4c0-14.9-12.2-27-27.1-27h-24.9c-14.9,0-27,12.1-27,27v83.7c0,15,12.1,27.1,27.1,27.1h24.9
						c15,0,27.1-12.1,27.1-27.1L883.4,846.4z" class="st37"></path>
					
						<linearGradient gradientTransform="matrix(1.061157e-15 17.33 32.21 -1.972294e-15 8282.3779 60349.7695)" y2="-230.9394" x2="-3428.5012" y1="-230.9394" x1="-3429.1079" gradientUnits="userSpaceOnUse" id="SVGID_37_">
						<stop style="stop-color:#E1F2FF" offset="0"></stop>
						<stop style="stop-color:#95D2FF" offset="1"></stop>
					</linearGradient>
					<path d="M858.1,907.6c0-2.9-2.3-5.2-5.2-5.2c0,0,0,0,0,0h-18.2c-2.9,0-5.2,2.3-5.2,5.2c0,0,0,0,0,0l0,0
						c0,2.9,2.3,5.2,5.2,5.2h18.2c1.4,0,2.7-0.6,3.7-1.5C857.5,910.3,858,909.1,858.1,907.6L858.1,907.6z" class="st38"></path>
					
						<linearGradient gradientTransform="matrix(0 -24.74 67.55 0 19423.0996 -83596.4141)" y2="-275.0443" x2="-3417.4048" y1="-275.0443" x1="-3417.9932" gradientUnits="userSpaceOnUse" id="SVGID_38_">
						<stop style="stop-color:#FF5133" offset="0"></stop>
						<stop style="stop-color:#FFBC56" offset="1"></stop>
					</linearGradient>
					<path d="M887.3,980.7c0-8.1-6.6-14.8-14.8-14.8l0,0h-57.4c-8.1,0-14.8,6.6-14.8,14.8l0,0H887.3z" class="st39"></path>
					
						<linearGradient gradientTransform="matrix(2.514065e-07 103.05 69.56 -8.297943e-07 20075.2246 353744.5625)" y2="-276.4722" x2="-3423.9753" y1="-276.4722" x1="-3424.582" gradientUnits="userSpaceOnUse" id="SVGID_39_">
						<stop style="stop-color:#2B5ACC" offset="0"></stop>
						<stop style="stop-color:#152873" offset="1"></stop>
					</linearGradient>
					<circle r="30.8" cy="858.8" cx="843.8" class="st40"></circle>
					
						<linearGradient gradientTransform="matrix(-5.720115e-02 56.1546 37.9022 3.600001e-02 9889.4287 193177.1875)" y2="-243.9571" x2="-3424.6902" y1="-243.9571" x1="-3425.2791" gradientUnits="userSpaceOnUse" id="SVGID_40_">
						<stop style="stop-color:#152873" offset="0"></stop>
						<stop style="stop-color:#2B5ACC" offset="1"></stop>
					</linearGradient>
					<circle r="16.8" cy="857.6" cx="838.8" class="st41"></circle>
					
						<linearGradient gradientTransform="matrix(1.699810e-15 27.76 18.74 -1.147494e-15 4031.1387 95955.6016)" y2="-170.0787" x2="-3426.0432" y1="-170.0787" x1="-3426.6499" gradientUnits="userSpaceOnUse" id="SVGID_41_">
						<stop style="stop-color:#2B5ACC" offset="0"></stop>
						<stop style="stop-color:#152873" offset="1"></stop>
					</linearGradient>
					<path d="M843.8,850.5c4.6,0,8.3,3.7,8.3,8.3c0,4.6-3.7,8.3-8.3,8.3c-4.6,0-8.3-3.7-8.3-8.3c0,0,0,0,0,0
						C835.6,854.3,839.3,850.5,843.8,850.5z" class="st42"></path>
					
						<linearGradient gradientTransform="matrix(9.974749e-16 16.29 11 -6.735558e-16 1581.7054 56686.6133)" y2="-67.5728" x2="-3427.1833" y1="-67.5728" x1="-3427.7896" gradientUnits="userSpaceOnUse" id="SVGID_42_">
						<stop style="stop-color:#E1F2FF" offset="0"></stop>
						<stop style="stop-color:#95D2FF" offset="1"></stop>
					</linearGradient>
					<circle r="4.9" cy="853.4" cx="838.4" class="st43"></circle>
					
						<linearGradient gradientTransform="matrix(5.817072e-16 9.5 6.41 -3.924993e-16 163.6402 33459.332)" y2="107.1322" x2="-3430.7681" y1="107.1322" x1="-3431.3569" gradientUnits="userSpaceOnUse" id="SVGID_43_">
						<stop style="stop-color:#E1F2FF" offset="0"></stop>
						<stop style="stop-color:#95D2FF" offset="1"></stop>
					</linearGradient>
					<path d="M850.3,862.5c1.6,0,2.9,1.3,2.9,2.8c0,1.6-1.3,2.9-2.8,2.9c-1.6,0-2.9-1.3-2.9-2.8c0,0,0,0,0,0
						C847.5,863.8,848.8,862.5,850.3,862.5z" class="st44"></path>
				</g>
				<g id="Tablet">
					
						<linearGradient gradientTransform="matrix(1.798945e-14 293.79 161.63 -9.896984e-15 48141.0312 1006837)" y2="-296.1055" x2="-3423.7058" y1="-296.1055" x1="-3424.2947" gradientUnits="userSpaceOnUse" id="SVGID_44_">
						<stop style="stop-color:#2B5ACC" offset="0"></stop>
						<stop style="stop-color:#152873" offset="1"></stop>
					</linearGradient>
					<path d="M338.7,805.2c7.8,0.2,14,6.4,14.3,14.2c0.1,49,0.1,98,0,147c-0.2,7.8-6.5,14-14.3,14.2
						c-38.2,0.1-76.3,0.1-114.5,0c-7.8-0.2-14-6.4-14.3-14.2c-0.1-49-0.1-98,0-147c0.2-7.8,6.5-14,14.3-14.2
						C262.4,805.1,300.5,805.1,338.7,805.2z" class="st45"></path>
					
						<linearGradient gradientTransform="matrix(1.485313e-14 242.57 127.46 -7.804674e-15 37360.8164 831463.0625)" y2="-290.9102" x2="-3423.8008" y1="-290.9102" x1="-3424.3892" gradientUnits="userSpaceOnUse" id="SVGID_45_">
						<stop style="stop-color:#E1F2FF" offset="0"></stop>
						<stop style="stop-color:#95D2FF" offset="1"></stop>
					</linearGradient>
					<path d="M229.5,820.7c-2.2,0.1-3.9,1.8-4,3.9c-0.1,49-1.1,87.6,0,136.6c0.1,2.1,1.8,3.7,3.9,3.8
						c38.1,0.6,66,0.8,104.1,0c2.1-0.1,3.8-1.8,3.8-3.9c0.1-49,1.1-87.6,0-136.6c-0.1-2.1-1.8-3.8-3.9-3.9
						C295.3,820.6,267.6,820.7,229.5,820.7L229.5,820.7z" class="st46"></path>
					
						<linearGradient gradientTransform="matrix(-94.62 149.1 -149.1 -94.62 -373819.6875 481684.1562)" y2="-329.8825" x2="-3433.3347" y1="-329.8825" x1="-3433.9236" gradientUnits="userSpaceOnUse" id="SVGID_46_">
						<stop style="stop-color:#E1F2FF" offset="0"></stop>
						<stop style="stop-color:#95D2FF" offset="1"></stop>
					</linearGradient>
					<path d="M225.4,844.3l112.3,64.8c-0.1,16.6-0.3,33.5-0.4,52c-0.1,2.1-1.7,3.8-3.8,3.9c-38.2,0.8-66,0.6-104.1,0
						c-2.1-0.1-3.8-1.8-3.9-3.8C224.6,919,225.1,884.5,225.4,844.3L225.4,844.3z" class="st47"></path>
				</g>
				<g id="Smartwatch">
					
						<linearGradient gradientTransform="matrix(0 -42.81 33.09 0 7418.9707 -145586.25)" y2="-219.2939" x2="-3421.6848" y1="-219.2939" x1="-3422.2737" gradientUnits="userSpaceOnUse" id="SVGID_47_">
						<stop style="stop-color:#FF5133" offset="0"></stop>
						<stop style="stop-color:#FFBC56" offset="1"></stop>
					</linearGradient>
					<path d="M181.4,879.8c-0.4-3-2.9-5.3-5.9-5.3h-25.8c-3,0-5.6,2.3-5.9,5.3c-0.9,7.5-2.4,20.3-2.4,20.3h42.5
						C183.8,900.1,182.3,887.3,181.4,879.8z" class="st48"></path>
					
						<linearGradient gradientTransform="matrix(2.621357e-15 42.81 33.09 -2.026178e-15 7418.9707 147663.8906)" y2="-219.2939" x2="-3426.876" y1="-219.2939" x1="-3427.4644" gradientUnits="userSpaceOnUse" id="SVGID_48_">
						<stop style="stop-color:#FFBC56" offset="0"></stop>
						<stop style="stop-color:#FF5133" offset="1"></stop>
					</linearGradient>
					<path d="M181.4,975.5c-0.4,3-2.9,5.3-5.9,5.2h-25.8c-3,0-5.6-2.2-5.9-5.2c-0.9-7.5-2.4-20.3-2.4-20.3h42.5
						C183.8,955.2,182.3,968,181.4,975.5z" class="st49"></path>
					
						<linearGradient gradientTransform="matrix(6.622890e-15 108.16 69.76 -4.271569e-15 18982.6328 371347.375)" y2="-269.7839" x2="-3424.4458" y1="-269.7839" x1="-3425.0347" gradientUnits="userSpaceOnUse" id="SVGID_49_">
						<stop style="stop-color:#2B5ACC" offset="0"></stop>
						<stop style="stop-color:#152873" offset="1"></stop>
					</linearGradient>
					<path d="M193.4,907.7c0-6.8-5.5-12.3-12.3-12.3c0,0,0,0,0,0H144c-6.8,0-12.4,5.5-12.4,12.3c0,0,0,0,0,0v39.9
						c0,6.8,5.5,12.3,12.3,12.3c0,0,0,0,0,0H181c6.8,0,12.3-5.5,12.3-12.3l0,0V907.7z" class="st50"></path>
					
						<linearGradient gradientTransform="matrix(-39.59 62.12 -62.12 -39.59 -158132.9062 201224.7344)" y2="-350.803" x2="-3447.8926" y1="-350.803" x1="-3448.4812" gradientUnits="userSpaceOnUse" id="SVGID_50_">
						<stop style="stop-color:#E1F2FF" offset="0"></stop>
						<stop style="stop-color:#95D2FF" offset="1"></stop>
					</linearGradient>
					<path d="M183.8,911.7c0-3.5-2.9-6.4-6.4-6.4h-29.8c-3.5,0-6.4,2.9-6.4,6.4v31.8c0,3.5,2.9,6.4,6.4,6.4h29.8
						c3.5,0,6.4-2.9,6.4-6.4V911.7z" class="st51"></path>
					
						<linearGradient gradientTransform="matrix(-31.07 39.52 -39.52 -31.07 -121880.0391 126569.1719)" y2="-363.8486" x2="-3464.1829" y1="-363.8486" x1="-3464.7715" gradientUnits="userSpaceOnUse" id="SVGID_51_">
						<stop style="stop-color:#E1F2FF" offset="0"></stop>
						<stop style="stop-color:#95D2FF" offset="1"></stop>
					</linearGradient>
					<path d="M141.2,914.1l42.6,24.6v4.9c0,3.5-2.9,6.4-6.4,6.4h-29.8c-3.5,0-6.4-2.9-6.4-6.4V914.1z" class="st52"></path>
				</g>
				<g id="Headset">
					
						<linearGradient gradientTransform="matrix(6.558596e-15 107.11 39.72 -2.432149e-15 10354.1143 367795.2188)" y2="-243.9105" x2="-3424.5325" y1="-243.9105" x1="-3425.1213" gradientUnits="userSpaceOnUse" id="SVGID_52_">
						<stop style="stop-color:#2B5ACC" offset="0"></stop>
						<stop style="stop-color:#152873" offset="1"></stop>
					</linearGradient>
					<path d="M659.5,980.7h-11.1v-64h11.1c13.3,0,24.1,14.3,24.1,32C683.6,966.4,672.8,980.7,659.5,980.7z" class="st53"></path>
					
						<linearGradient gradientTransform="matrix(0 -102.69 46.38 0 12542.457 -350614.0625)" y2="-254.8115" x2="-3422.4768" y1="-254.8115" x1="-3423.0657" gradientUnits="userSpaceOnUse" id="SVGID_53_">
						<stop style="stop-color:#FF3A23" offset="0"></stop>
						<stop style="stop-color:#FF963E" offset="1"></stop>
					</linearGradient>
					<path d="M703.7,861.1c50.4,4.8,50.4,54.3,50.4,61.2h-19.4v-0.7c-0.2-15-5.2-29.6-13.5-39.9
						c-6.6-8.5-16.2-14.3-26.9-16.1L703.7,861.1L703.7,861.1z" class="st54"></path>
					
						<linearGradient gradientTransform="matrix(0 -107.35 52.8 0 14482.085 -366564.8438)" y2="-261.5418" x2="-3422.573" y1="-261.5418" x1="-3423.1619" gradientUnits="userSpaceOnUse" id="SVGID_54_">
						<stop style="stop-color:#FF5133" offset="0"></stop>
						<stop style="stop-color:#FFBC56" offset="1"></stop>
					</linearGradient>
					<path d="M694.5,865.6c-4.9-0.7-31.3,6.6-36.1,56.8h-19.6c0-26.1,13.7-51.2,33.6-60.2c5.4-2.5,11.3-3.8,17.3-3.8
						c4.8,0,17,0,17,0L694.5,865.6L694.5,865.6z" class="st55"></path>
					
						<linearGradient gradientTransform="matrix(0 -161.26 118.53 0 35262.2969 -551108.5625)" y2="-291.5346" x2="-3422.7886" y1="-291.5346" x1="-3423.3774" gradientUnits="userSpaceOnUse" id="SVGID_55_">
						<stop style="stop-color:#FF5133" offset="0"></stop>
						<stop style="stop-color:#FFBC56" offset="1"></stop>
					</linearGradient>
					<path d="M706.9,858.4c20.8,0.1,41,17.8,47.9,43.7c1.8,6.6,2.6,13.5,2.6,20.3h-5.4v-0.7
						c-0.2-15-5.2-29.6-13.5-39.9c-10.7-13.3-26.8-19.2-41.4-15.2c-13.9,3.8-26.1,16.3-31.9,32.7c-2.6,7.5-3.9,15.3-3.9,23.2H656
						c0-26.1,13.7-51.2,33.6-60.2C695,859.6,700.9,858.3,706.9,858.4L706.9,858.4z" class="st56"></path>
					
						<linearGradient gradientTransform="matrix(0 -107.35 27.33 0 6597.5708 -366467.0625)" y2="-213.8057" x2="-3422.1987" y1="-213.8057" x1="-3422.7876" gradientUnits="userSpaceOnUse" id="SVGID_56_">
						<stop style="stop-color:#FF5133" offset="0"></stop>
						<stop style="stop-color:#FFBC56" offset="1"></stop>
					</linearGradient>
					<path d="M747.8,980.7h-11.1v-64h11.1c13.3,0,24.1,14.3,24.1,32C771.8,966.4,761,980.7,747.8,980.7z" class="st57"></path>
					
						<linearGradient gradientTransform="matrix(1.102366e-14 180.03 66.76 -4.087871e-15 19018.8633 617399.375)" y2="-273.648" x2="-3424.0671" y1="-273.648" x1="-3424.6558" gradientUnits="userSpaceOnUse" id="SVGID_57_">
						<stop style="stop-color:#2B5ACC" offset="0"></stop>
						<stop style="stop-color:#152873" offset="1"></stop>
					</linearGradient>
					<path d="M743.6,980.7h-11.1v-64h11.1c13.3,0,24.1,14.3,24.1,32C767.7,966.4,756.9,980.7,743.6,980.7z" class="st58"></path>
					
						<linearGradient gradientTransform="matrix(0 -107.35 37.45 0 9608.9775 -366467.0625)" y2="-239.2676" x2="-3422.1987" y1="-239.2676" x1="-3422.7876" gradientUnits="userSpaceOnUse" id="SVGID_58_">
						<stop style="stop-color:#FF5133" offset="0"></stop>
						<stop style="stop-color:#FFBC56" offset="1"></stop>
					</linearGradient>
					<ellipse ry="32" rx="24.1" cy="948.7" cx="648.4" class="st59"></ellipse>
					
						<linearGradient gradientTransform="matrix(6.558596e-15 107.11 54.43 -3.332876e-15 15096.2217 367795.2188)" y2="-263.8927" x2="-3424.5325" y1="-263.8927" x1="-3425.1213" gradientUnits="userSpaceOnUse" id="SVGID_59_">
						<stop style="stop-color:#2B5ACC" offset="0"></stop>
						<stop style="stop-color:#152873" offset="1"></stop>
					</linearGradient>
					<ellipse ry="32" rx="24.1" cy="948.7" cx="732.5" class="st60"></ellipse>
					
						<linearGradient gradientTransform="matrix(0 -83.08 27.33 0 6409.1216 -283352.8125)" y2="-211.0219" x2="-3422.05" y1="-211.0219" x1="-3422.6389" gradientUnits="userSpaceOnUse" id="SVGID_60_">
						<stop style="stop-color:#FFBC56" offset="0"></stop>
						<stop style="stop-color:#FF5133" offset="1"></stop>
					</linearGradient>
					<ellipse ry="24.8" rx="17.6" cy="948.7" cx="641.9" class="st61"></ellipse>
					
						<linearGradient gradientTransform="matrix(3.859474e-15 63.03 30.2 -1.849217e-15 7464.2383 216869.1562)" y2="-222.9771" x2="-3425.4167" y1="-222.9771" x1="-3426.0229" gradientUnits="userSpaceOnUse" id="SVGID_61_">
						<stop style="stop-color:#152873" offset="0"></stop>
						<stop style="stop-color:#2B5ACC" offset="1"></stop>
					</linearGradient>
					<ellipse ry="18.8" rx="13.4" cy="948.7" cx="730.3" class="st62"></ellipse>
				</g>
				<g id="Smartphone">
					
						<linearGradient gradientTransform="matrix(1.208298e-14 197.33 81.24 -4.974515e-15 23230.3418 676616.375)" y2="-279.2969" x2="-3424.0037" y1="-279.2969" x1="-3424.6106" gradientUnits="userSpaceOnUse" id="SVGID_62_">
						<stop style="stop-color:#2B5ACC" offset="0"></stop>
						<stop style="stop-color:#152873" offset="1"></stop>
					</linearGradient>
					<path d="M576.2,871.7c0-4.9-4-8.9-8.9-8.9h-54.1c-4.9,0-8.9,4-8.9,8.9v100c0,4.9,4,8.9,8.9,8.9h54
						c4.9,0,8.9-4,8.9-8.9L576.2,871.7z" class="st63"></path>
					
						<linearGradient gradientTransform="matrix(9.947807e-15 162.46 57.71 -3.533719e-15 15809.1445 557256.875)" y2="-264.5799" x2="-3424.0225" y1="-264.5799" x1="-3424.6113" gradientUnits="userSpaceOnUse" id="SVGID_63_">
						<stop style="stop-color:#E1F2FF" offset="0"></stop>
						<stop style="stop-color:#95D2FF" offset="1"></stop>
					</linearGradient>
					<path d="M562.8,873.2c1.6,0,3,1.3,3,3l0,0v91.1c0,1.6-1.3,3-3,3h-45.1c-1.6,0-3-1.3-3-3v-91.1c0-1.6,1.3-3,3-3
						l0,0h7.7c0.9,0,1.8,0.4,2.3,1.1l2.2,2.8c0.6,0.7,1.4,1.1,2.3,1.1h16.1c0.9,0,1.8-0.4,2.3-1.1l2.2-2.8c0.6-0.7,1.4-1.1,2.3-1.1
						H562.8z" class="st64"></path>
					
						<linearGradient gradientTransform="matrix(-44.66 69.5 -69.5 -44.66 -177212.9688 224949.9062)" y2="-344.2702" x2="-3443.79" y1="-344.2702" x1="-3444.3789" gradientUnits="userSpaceOnUse" id="SVGID_64_">
						<stop style="stop-color:#E1F2FF" offset="0"></stop>
						<stop style="stop-color:#95D2FF" offset="1"></stop>
					</linearGradient>
					<path d="M514.7,911.7l51.1,29.5v26c0,1.6-1.3,3-3,3h-45.1c-1.6,0-3-1.3-3-3V911.7z" class="st65"></path>
				</g>
				<g id="Camera">
					
						<linearGradient gradientTransform="matrix(5.755840e-16 9.4 140.91 -8.628249e-15 41864.2109 33171.3711)" y2="-294.0253" x2="-3433.6931" y1="-294.0253" x1="-3434.2996" gradientUnits="userSpaceOnUse" id="SVGID_65_">
						<stop style="stop-color:#E6F7FF" offset="0"></stop>
						<stop style="stop-color:#66BEFF" offset="1"></stop>
					</linearGradient>
					<path d="M421.5,897.7h21.4c1,0,1.8,0.8,1.8,1.8v3.7h-23.2V897.7z" class="st66"></path>
					
						<linearGradient gradientTransform="matrix(7.433607e-16 12.14 140.91 -8.628249e-15 41845.8047 42546.8086)" y2="-293.9725" x2="-3431.5974" y1="-293.9725" x1="-3432.2036" gradientUnits="userSpaceOnUse" id="SVGID_66_">
						<stop style="stop-color:#E6F7FF" offset="0"></stop>
						<stop style="stop-color:#66BEFF" offset="1"></stop>
					</linearGradient>
					<path d="M410.5,896.1H432c1,0,1.8,0.8,1.8,1.8v5.4h-23.2V896.1z" class="st67"></path>
					
						<linearGradient gradientTransform="matrix(6.786381e-15 -110.83 -29.31 -1.794720e-15 -11973.0176 -378384.8125)" y2="-419.8957" x2="-3422.2258" y1="-419.8957" x1="-3422.832" gradientUnits="userSpaceOnUse" id="SVGID_67_">
						<stop style="stop-color:#FF3A23" offset="0"></stop>
						<stop style="stop-color:#FF963E" offset="1"></stop>
					</linearGradient>
					<path d="M315.2,914.6H353v66h-30.6c-3.9,0-7.1-3.2-7.1-7.1L315.2,914.6z" class="st68"></path>
					
						<linearGradient gradientTransform="matrix(0 31.09 -42.6 0 -16158.5488 107455.5391)" y2="-387.1519" x2="-3426.1973" y1="-387.1519" x1="-3426.804" gradientUnits="userSpaceOnUse" id="SVGID_68_">
						<stop style="stop-color:#85D1FE" offset="0"></stop>
						<stop style="stop-color:#4A7EE8" offset="1"></stop>
					</linearGradient>
					<path d="M315.2,903.2c0-3.9,3.2-7.1,7.1-7.1H353v18.6h-37.8V903.2z" class="st69"></path>
					
						<linearGradient gradientTransform="matrix(6.786381e-15 -110.83 -81.45 -4.987374e-15 -28303.2832 -378384.8125)" y2="-352.3738" x2="-3422.2258" y1="-352.3738" x1="-3422.832" gradientUnits="userSpaceOnUse" id="SVGID_69_">
						<stop style="stop-color:#FF5133" offset="0"></stop>
						<stop style="stop-color:#FFBC56" offset="1"></stop>
					</linearGradient>
					<path d="M345.2,914.6H450v58.9c0,3.9-3.2,7.1-7.1,7.1h-90.5c-3.9,0-7.1-3.2-7.1-7.1L345.2,914.6z" class="st70"></path>
					
						<linearGradient gradientTransform="matrix(0 31.09 -118.37 0 -39941.5156 107455.5391)" y2="-340.7878" x2="-3426.1973" y1="-340.7878" x1="-3426.804" gradientUnits="userSpaceOnUse" id="SVGID_70_">
						<stop style="stop-color:#E1F2FF" offset="0"></stop>
						<stop style="stop-color:#95D2FF" offset="1"></stop>
					</linearGradient>
					<path d="M345.2,903.2c0-3.9,3.2-7.1,7.1-7.1h62c1.6,0,3.1,0.9,3.9,2.3l1.4,2.6c0.8,1.4,2.3,2.3,3.9,2.3h19.2
						c3.9,0,7.1,3.2,7.1,7.1v4.2H345.2V903.2z" class="st71"></path>
					<g id="Lense">
						
							<linearGradient gradientTransform="matrix(0 33.89 -15.92 0 -7691.9678 117086.8594)" y2="-506.0296" x2="-3427.1343" y1="-506.0296" x1="-3427.7231" gradientUnits="userSpaceOnUse" id="SVGID_71_">
							<stop style="stop-color:#E1F2FF" offset="0"></stop>
							<stop style="stop-color:#95D2FF" offset="1"></stop>
						</linearGradient>
						<path d="M357,937.8c0-3.3,2.6-5.9,5.9-6c0,0,0.1,0,0.1,0h8.1v20.2h-8.1c-3.3,0-5.9-2.6-6-5.9c0,0,0,0,0-0.1
							V937.8z" class="st72"></path>
						
							<linearGradient gradientTransform="matrix(0 129.57 -61.05 0 -21873.5898 444670.125)" y2="-364.7353" x2="-3424.3633" y1="-364.7353" x1="-3424.9521" gradientUnits="userSpaceOnUse" id="SVGID_72_">
							<stop style="stop-color:#85D1FE" offset="0"></stop>
							<stop style="stop-color:#4A7EE8" offset="1"></stop>
						</linearGradient>
						<path d="M400.2,980.7h20.3v-77.5h-20.3c-18.6,0-33.7,17.3-33.7,38.7C366.5,963.3,381.6,980.6,400.2,980.7
							L400.2,980.7z" class="st73"></path>
						
							<linearGradient gradientTransform="matrix(0 129.57 -76.18 0 -26594.5566 444670.125)" y2="-354.6216" x2="-3424.3633" y1="-354.6216" x1="-3424.9521" gradientUnits="userSpaceOnUse" id="SVGID_73_">
							<stop style="stop-color:#E1F2FF" offset="0"></stop>
							<stop style="stop-color:#95D2FF" offset="1"></stop>
						</linearGradient>
						<ellipse ry="38.7" rx="33.7" cy="942" cx="420.5" class="st74"></ellipse>
						
							<linearGradient gradientTransform="matrix(0 91.6 -53.86 0 -19554.8047 314677.7812)" y2="-370.8748" x2="-3424.6987" y1="-370.8748" x1="-3425.3049" gradientUnits="userSpaceOnUse" id="SVGID_74_">
							<stop style="stop-color:#2B5ACC" offset="0"></stop>
							<stop style="stop-color:#152873" offset="1"></stop>
						</linearGradient>
						<ellipse ry="27.4" rx="23.8" cy="942" cx="420.5" class="st75"></ellipse>
						
							<linearGradient gradientTransform="matrix(0 51.36 -30.2 0 -12100.3203 176916.6094)" y2="-414.5972" x2="-3425.5745" y1="-414.5972" x1="-3426.1807" gradientUnits="userSpaceOnUse" id="SVGID_75_">
							<stop style="stop-color:#152873" offset="0"></stop>
							<stop style="stop-color:#2B5ACC" offset="1"></stop>
						</linearGradient>
						<ellipse ry="15.3" rx="13.4" cy="942" cx="420.5" class="st76"></ellipse>
					</g>
				</g>
			</g>
		</g>
	</g>
</g>
</svg>
