<?xml version="1.0" encoding="utf-8"?>
<!-- Generator: Adobe Illustrator 22.1.0, SVG Export Plug-In . SVG Version: 6.00 Build 0)  -->
<svg version="1.1" id="图层_1" xmlns="http://www.w3.org/2000/svg" xmlns:xlink="http://www.w3.org/1999/xlink" x="0px" y="0px"
	 viewBox="0 0 60 60" style="enable-background:new 0 0 60 60;" xml:space="preserve">
<style type="text/css">
	.st0{fill:#330D84;}
	.st1{fill:#FFBE1B;}
	.st2{fill:#5D8EF9;}
	.st3{fill:url(#SVGID_1_);}
	.st4{fill:url(#SVGID_2_);}
	.st5{fill:url(#SVGID_3_);}
	.st6{fill:url(#SVGID_4_);}
	.st7{fill:url(#SVGID_5_);}
	.st8{fill:url(#SVGID_6_);}
	.st9{fill:#FFE37B;}
	.st10{fill:#FFFFFF;}
</style>
<g>
	<path class="st0" d="M48.9,17.8l0.3,0.1l-0.3,0.1c-1.5,0.4-2.7,1.6-3.1,3.1l-0.1,0.3L45.7,21c-0.4-1.5-1.6-2.7-3.1-3.1l-0.3-0.1
		l0.3-0.1c1.5-0.4,2.7-1.6,3.1-3.1l0.1-0.3l0.1,0.3C46.2,16.2,47.4,17.4,48.9,17.8L48.9,17.8z"/>
	<path class="st0" d="M42.6,13.6l0.1,0L42.6,13.6c-0.8,0.3-1.5,0.9-1.7,1.7l0,0.1l0-0.1c-0.2-0.8-0.8-1.5-1.7-1.7l-0.1,0l0.1,0
		c0.8-0.2,1.5-0.8,1.7-1.7l0-0.1l0,0.1C41.2,12.7,41.8,13.4,42.6,13.6L42.6,13.6z"/>
	<path class="st1" d="M17.3,34.9l0.2,0.1L17.3,35c-1.4,0.3-2.5,1.4-2.8,2.8l-0.1,0.2l-0.1-0.2c-0.3-1.4-1.4-2.5-2.8-2.8L11.3,35
		l0.2-0.1c1.4-0.3,2.5-1.4,2.8-2.8l0.1-0.2l0.1,0.2C14.8,33.5,15.9,34.6,17.3,34.9L17.3,34.9z"/>
	<path class="st2" d="M49.5,42.8l0.2,0L49.5,42.8c-1.1,0.4-2,1.2-2.2,2.3l0,0.2l0-0.2c-0.3-1.1-1.1-2-2.2-2.2l-0.2,0l0.2,0
		c1.1-0.3,2-1.1,2.2-2.2l0-0.2l0,0.2C47.5,41.7,48.4,42.5,49.5,42.8L49.5,42.8z"/>
	<linearGradient id="SVGID_1_" gradientUnits="userSpaceOnUse" x1="37.6349" y1="25.3343" x2="37.6349" y2="25.333">
		<stop  offset="0" style="stop-color:#FFE37B"/>
		<stop  offset="1" style="stop-color:#FFBE1B"/>
	</linearGradient>
	<path class="st3" d="M37.6,25.3C37.6,25.3,37.6,25.3,37.6,25.3C37.6,25.3,37.6,25.3,37.6,25.3z"/>
	<path class="st1" d="M38.8,23.8c-0.1-0.1-0.3-0.2-0.5-0.1c-0.3,2-0.5,2.7-0.5,2.7s0,0,0-0.1c0,0.6,0,1.2,0.1,1.6c0.1,0,0.3,0,0.4,0
		c0.4-0.2,0.8-1.8,0.9-2.4C39.3,25,39.4,24.2,38.8,23.8z"/>
	<linearGradient id="SVGID_2_" gradientUnits="userSpaceOnUse" x1="37.6624" y1="25.4906" x2="37.6624" y2="25.483">
		<stop  offset="0" style="stop-color:#FFE37B"/>
		<stop  offset="1" style="stop-color:#FFBE1B"/>
	</linearGradient>
	<path class="st4" d="M37.7,25.5C37.7,25.5,37.7,25.5,37.7,25.5C37.7,25.5,37.7,25.5,37.7,25.5z"/>
	<linearGradient id="SVGID_3_" gradientUnits="userSpaceOnUse" x1="37.5811" y1="25.0022" x2="37.5811" y2="24.987">
		<stop  offset="0" style="stop-color:#FFE37B"/>
		<stop  offset="1" style="stop-color:#FFBE1B"/>
	</linearGradient>
	<path class="st5" d="M37.6,25C37.6,25,37.6,25,37.6,25C37.6,25,37.6,25,37.6,25z"/>
	<linearGradient id="SVGID_4_" gradientUnits="userSpaceOnUse" x1="37.4882" y1="24.2255" x2="37.4882" y2="24.209">
		<stop  offset="0" style="stop-color:#FFE37B"/>
		<stop  offset="1" style="stop-color:#FFBE1B"/>
	</linearGradient>
	<path class="st6" d="M37.5,24.2C37.5,24.2,37.5,24.2,37.5,24.2C37.5,24.2,37.5,24.2,37.5,24.2z"/>
	<linearGradient id="SVGID_5_" gradientUnits="userSpaceOnUse" x1="37.5084" y1="24.4317" x2="37.5084" y2="24.4076">
		<stop  offset="0" style="stop-color:#FFE37B"/>
		<stop  offset="1" style="stop-color:#FFBE1B"/>
	</linearGradient>
	<path class="st7" d="M37.5,24.4C37.5,24.4,37.5,24.4,37.5,24.4C37.5,24.4,37.5,24.4,37.5,24.4z"/>
	<linearGradient id="SVGID_6_" gradientUnits="userSpaceOnUse" x1="37.5555" y1="24.8169" x2="37.5555" y2="24.8106">
		<stop  offset="0" style="stop-color:#FFE37B"/>
		<stop  offset="1" style="stop-color:#FFBE1B"/>
	</linearGradient>
	<path class="st8" d="M37.6,24.8C37.6,24.8,37.6,24.8,37.6,24.8C37.6,24.8,37.6,24.8,37.6,24.8z"/>
	<path class="st1" d="M21.2,27.5c0,0-0.4-1.6-0.6-2.7c0-0.2-0.2-0.6-0.4-1.2c-0.1,0-0.3,0.1-0.4,0.2c-0.6,0.5-0.6,1.2-0.4,1.8
		c0.1,0.5,0.5,2.2,0.9,2.4c0.3,0.2,0.7-0.1,0.9-0.2C21.2,27.6,21.2,27.6,21.2,27.5c0-0.1,0-0.3,0.1-0.5v0
		C21.3,27.4,21.2,27.5,21.2,27.5z"/>
	<path class="st1" d="M33.5,35.9c-0.1-0.5-0.2-0.9-0.3-1.4c-0.7,0.4-1.3,0.7-2,1c-0.6,0.3-2.6,0.3-3.2,0c-0.5-0.2-1.2-0.6-1.9-1
		c0,0.5-0.1,0.9-0.3,1.4c-0.2,0.5-1.2,1-2.4,1.4c0.2,0.3,2.4,3.2,6.3,3.2c4,0,6.1-2.9,6.2-3.2C34.7,36.9,33.7,36.5,33.5,35.9z"/>
	<path class="st9" d="M37.4,22.8c0-0.9,0.1-2,0-2.7c-0.1-0.7-0.5-1.8-1.3-1.9c0,0-3.7,4.1-11.6,3.6c-0.8-0.1-1.5-0.2-2.1-0.3
		c-0.8,0.6-1,1.3-1,1.9c0.1,2-0.2,3.9-0.2,4.1c0,0.3,0,0.7,0,0.9c0,2.1,1.3,3.5,3.2,4.9c1.1,0.8,2.6,1.7,3.6,2.1
		c0.7,0.3,2.7,0.3,3.2,0c1-0.5,2.1-1,3.2-1.8c1.8-1.4,3.4-3,3.4-4.8c0-0.4,0-1.4-0.1-2.7C37.8,26,37.4,24.5,37.4,22.8z"/>
	<path class="st0" d="M37.8,14.6c-0.9-1.1-2.1-1.7-3.3-1.5c-1-1.3-2.5-2.2-4.9-2.1c-3.8,0.2-3.8,2.2-6.7,3.1
		c-2.9,0.9-4.1-1.4-5.2-0.6c-1.2,0.8-0.5,3.8,1.9,6.3c-0.2,2,1.1,4.6,1.2,5.1c0.1,1.1,0.6,2.7,0.6,2.7s0.3-1.9,0.2-4.1
		c0-0.6,0.2-1.3,1-1.9c0.6,0.2,1.3,0.3,2.1,0.3c7.9,0.5,11.6-3.6,11.6-3.6c0.8,0.1,1.2,1.2,1.3,1.9c0.1,0.7,0,1.8,0,2.7
		c0,1.9,0.4,3.5,0.4,3.5s0.2-0.9,0.5-3.1C38.5,21.9,40.2,17.6,37.8,14.6z"/>
	<path class="st2" d="M40.1,38.5L36,37.3c0,0-2.1,3.2-6.3,3.2c-4.1,0-6.3-3.2-6.3-3.2l-4.3,1.3c-2.3,0.7-3.8,2.8-3.8,5.1v5.8h28.5
		v-5.8C43.9,41.3,42.3,39.2,40.1,38.5L40.1,38.5z"/>
	<path class="st10" d="M25.9,26c0-0.5,0.2-1,0.5-1.5c0.3-0.5,0.8-0.9,1.3-1.2c0.6-0.3,1.3-0.5,2.1-0.5c0.7,0,1.4,0.1,1.9,0.4
		c0.6,0.3,1,0.6,1.3,1.1c0.3,0.5,0.5,1,0.5,1.5c0,0.4-0.1,0.8-0.3,1.1c-0.2,0.3-0.4,0.6-0.6,0.8c-0.2,0.2-0.7,0.6-1.3,1.2
		c-0.2,0.2-0.3,0.3-0.4,0.4c-0.1,0.1-0.2,0.2-0.2,0.3c-0.1,0.1-0.1,0.2-0.1,0.3c0,0.1-0.1,0.3-0.1,0.5c-0.1,0.5-0.4,0.8-0.9,0.8
		c-0.3,0-0.5-0.1-0.7-0.3c-0.2-0.2-0.3-0.4-0.3-0.8c0-0.4,0.1-0.8,0.2-1.1c0.1-0.3,0.3-0.6,0.5-0.8c0.2-0.2,0.5-0.5,0.9-0.8
		c0.3-0.3,0.6-0.5,0.7-0.6c0.1-0.1,0.3-0.3,0.4-0.5c0.1-0.2,0.1-0.4,0.1-0.6c0-0.4-0.1-0.7-0.4-1c-0.3-0.3-0.7-0.4-1.2-0.4
		c-0.6,0-1,0.1-1.2,0.4c-0.3,0.3-0.5,0.7-0.7,1.2c-0.2,0.6-0.5,0.9-1,0.9c-0.3,0-0.5-0.1-0.7-0.3C26,26.5,25.9,26.3,25.9,26z
		 M29.6,34.3c-0.3,0-0.6-0.1-0.8-0.3c-0.2-0.2-0.3-0.5-0.3-0.8c0-0.3,0.1-0.6,0.3-0.8c0.2-0.2,0.5-0.3,0.8-0.3
		c0.3,0,0.6,0.1,0.8,0.3c0.2,0.2,0.3,0.5,0.3,0.8c0,0.4-0.1,0.6-0.3,0.8S29.9,34.3,29.6,34.3z"/>
</g>
</svg>
